<svg width="530" height="467" viewBox="0 0 530 467" fill="none" xmlns="http://www.w3.org/2000/svg">
<g clip-path="url(#clip0_402_2)">
<path d="M42.7704 291.064C41.9069 291.099 41.0425 291.19 40.1828 291.16C31.5673 290.883 26.0265 281.819 29.7662 274.043C31.3216 270.819 32.9845 267.637 34.7208 264.505C37.6827 259.164 44.789 257.034 50.301 259.797C53.3414 261.319 56.3693 262.878 59.3492 264.517C63.4442 266.763 65.5761 270.306 65.5713 274.961C65.5674 279.666 63.5052 283.296 59.3297 285.628C59.1855 285.727 59.0515 285.841 58.9294 285.967L42.7704 291.064Z" fill="#F6BC54"/>
<path d="M6.79006 264.373C6.78727 263.584 6.73955 262.798 6.78428 262.015C6.9358 259.852 7.77715 257.794 9.18475 256.144C10.5924 254.494 12.492 253.339 14.6046 252.849C19.1627 251.836 23.8229 253.91 25.944 257.9C28.6428 262.98 26.8877 269.143 21.8308 271.82C17.2783 274.237 11.0169 273.296 8.03797 267.694C7.94111 267.544 7.83054 267.403 7.70768 267.273L6.79006 264.373Z" fill="#F6BC54"/>
<path d="M66.6451 257.808C61.0847 259.562 55.6013 256.678 53.8332 251.083C52.1691 245.807 55.1855 240.042 60.5013 238.35C65.817 236.658 71.7068 239.675 73.3531 244.98C75.0781 250.574 72.21 256.059 66.6451 257.808Z" fill="#F6BC54"/>
<path d="M45.8452 239.046C47.5819 244.148 44.6597 250.029 39.5199 251.778C34.0705 253.633 28.2693 250.859 26.4048 245.507C25.9502 244.232 25.7564 242.879 25.8348 241.528C25.9132 240.177 26.2623 238.855 26.8614 237.641C27.4604 236.428 28.2972 235.347 29.322 234.463C30.3469 233.579 31.5389 232.91 32.8272 232.496C38.3702 230.629 43.9229 233.424 45.8452 239.046Z" fill="#F6BC54"/>
</g>
<g clip-path="url(#clip1_402_2)">
<path d="M311.805 195.598C313.038 195.5 314.278 195.615 315.473 195.937C322.077 203.25 328.56 210.645 335.273 217.836C380.95 266.803 424.354 317.317 447.605 381.738C418.71 435.156 377.025 465.494 313.415 466.96C263.069 468.099 221.303 454.911 187.549 417.599C181.391 410.815 174.746 404.153 172.662 394.533C186.845 378.631 181.188 358.157 184.369 339.908C192.259 294.577 208.568 255.229 248.926 229.124C269.024 216.194 290.76 206.601 311.805 195.598Z" fill="#54534A"/>
<path d="M311.805 195.597C290.76 206.615 269.024 216.207 248.953 229.178C208.595 255.297 192.286 294.645 184.396 339.948C181.215 358.197 186.873 378.672 172.689 394.573C146.974 360.436 144.078 321.129 150.29 281.212C152.645 266.111 152.997 252.896 147.732 238.839C140.153 218.405 132.574 197.89 126.552 176.968C123.249 165.463 117.727 160.293 105.885 160.687C97.9948 160.945 90.0639 159.696 82.1465 159.33C49.7596 157.743 29.9053 136.495 30 104.311C30 96.1705 32.179 92.1001 40.7189 91.4624C50.5852 90.6619 60.3297 88.2468 70.1825 87.487C82.0653 86.5915 92.0398 83.1723 98.1842 72.1007C102.055 65.1268 108.605 61.8976 116.076 61.0835C139.842 58.492 153.606 44.951 160.278 22.523C162.281 15.7389 164.501 5.92919 171.796 5.31863C181.378 4.49098 183.083 15.6032 185.479 22.4551C210.11 93.0363 251.619 151.108 311.805 195.597Z" fill="#6A5F4B"/>
<path d="M447.578 381.724C424.354 317.303 380.95 266.789 335.246 217.822C328.479 210.631 322.05 203.236 315.446 195.923C339.726 174.214 356.602 148.991 361.272 115.383C368.756 61.4769 408.302 30.501 448.065 0.0541992C452.464 2.76782 450.447 7.27242 450.149 10.5695C448.133 32.9025 449.581 52.3049 477.867 56.8638C485.798 58.1392 490.169 66.2529 494.69 72.8741C499.535 79.9838 504.8 86.605 513.042 90.4041C531.624 98.9927 534.818 111.163 523.111 128.191C518.523 134.707 512.443 140.025 505.382 143.7C468.19 163.835 458.784 182.871 468.84 224.199C482.428 279.72 466.593 330.831 447.578 381.724Z" fill="#F6BB54"/>
</g>
<defs>
<clipPath id="clip0_402_2">
<rect width="69.302" height="58.846" fill="white" transform="translate(0 242.848) rotate(-17.507)"/>
</clipPath>
<clipPath id="clip1_402_2">
<rect width="500" height="467" fill="white" transform="translate(30)"/>
</clipPath>
</defs>
</svg>
