<svg width="106" height="56" viewBox="0 0 106 56" fill="none" xmlns="http://www.w3.org/2000/svg">
<path d="M44.0353 6.13813C44.2399 6.02164 44.4327 5.8468 44.6431 5.73032C46.7585 4.56548 49.3765 5.96329 49.581 8.35122C49.6687 9.34133 49.7213 10.3318 49.7505 11.3219C49.7973 13.0692 48.3889 14.5834 46.6709 14.6998C45.7242 14.7581 44.7775 14.8164 43.825 14.8164C42.5218 14.8747 41.505 14.3504 40.8447 13.2438C40.1785 12.0789 40.1551 10.9141 40.8272 9.74925C40.8505 9.74925 40.868 9.6909 40.8797 9.63266L44.0353 6.13813Z" fill="white"/>
<path d="M56.4826 7.41941C56.5936 7.59411 56.7163 7.76881 56.8215 8.00174C57.0903 8.52583 57.178 9.16639 57.0787 9.74872C56.9735 10.331 56.6813 10.8553 56.243 11.3211C55.2904 12.1946 53.8763 12.3691 52.7952 11.6703C51.4277 10.855 50.972 9.10793 51.8076 7.76858C52.5556 6.54569 54.1977 5.90558 55.7112 6.77908C55.7521 6.83731 55.7988 6.83708 55.8514 6.83708L56.4826 7.41941Z" fill="white"/>
<path d="M43.0243 17.4948C44.1112 16.2718 45.841 16.1556 47.0623 17.2622C48.2136 18.3104 48.307 20.1155 47.2669 21.2803C46.2325 22.445 44.3859 22.5617 43.2347 21.5134C42.025 20.4069 41.9374 18.6595 43.0243 17.4948Z" fill="white"/>
<path d="M50.6913 19.0091C49.5518 18.0772 49.4174 16.2134 50.405 15.1068C51.451 13.8837 53.2392 13.7089 54.4488 14.699C54.741 14.9902 54.9805 15.2814 55.15 15.5726C55.3253 15.922 55.4305 16.2717 55.4597 16.6794C55.4831 17.0289 55.4364 17.4362 55.3195 17.7856C55.1968 18.1351 55.0039 18.4847 54.7526 18.7759C53.6891 19.9989 51.9535 20.1156 50.6913 19.0091Z" fill="white"/>
<path d="M58.0432 39.6245C58.2477 39.508 58.4406 39.3331 58.6568 39.2166C60.7664 38.0518 63.3844 39.4496 63.5889 41.8375C63.6766 42.8277 63.7292 43.8181 63.7584 44.8082C63.8051 46.5555 62.3968 48.0697 60.6787 48.1862C59.732 48.2444 58.7854 48.3028 57.8328 48.3028C56.5297 48.361 55.5129 47.8369 54.8525 46.6721C54.1863 45.5655 54.1629 44.4004 54.835 43.2356C54.8583 43.2356 54.8759 43.1772 54.8876 43.119L58.0432 39.6245Z" fill="white"/>
<path d="M70.4905 40.9057C70.6015 41.0804 70.7242 41.2551 70.8294 41.488C71.0982 42.0121 71.1859 42.6527 71.0865 43.235C70.9813 43.8173 70.6891 44.3411 70.2508 44.7488C69.2983 45.6805 67.8841 45.8553 66.803 45.1565C65.4355 44.3413 64.9798 42.5942 65.8154 41.2549C66.5634 40.032 68.2055 39.3919 69.719 40.2654C69.7599 40.3236 69.8068 40.3234 69.8594 40.3234L70.4905 40.9057Z" fill="white"/>
<path d="M57.0321 50.9812C58.1191 49.7581 59.8489 49.6419 61.0702 50.7486C62.2214 51.7969 62.3149 53.6021 61.2747 54.767C60.2404 55.9319 58.3937 56.0486 57.2425 55.0002C56.0328 53.8936 55.9452 52.1461 57.0321 50.9812Z" fill="white"/>
<path d="M64.6991 52.4942C63.5596 51.5041 63.4252 49.6983 64.4128 48.5336C65.4588 47.3689 67.247 47.1944 68.4567 48.1844C68.7488 48.4173 68.9884 48.7668 69.1579 49.058C69.3332 49.4074 69.4384 49.757 69.4676 50.1647C69.491 50.5141 69.4442 50.9214 69.3274 51.2708C69.2046 51.6203 69.0118 51.97 68.7605 52.203C67.697 53.4842 65.9614 53.6007 64.6991 52.4942Z" fill="white"/>
<path d="M92.036 30.306C92.2347 30.1895 92.4334 30.0733 92.6438 29.9568C94.7534 28.7922 97.3772 30.1897 97.5817 32.5773C97.6635 33.5673 97.7161 34.557 97.7453 35.547C97.7921 37.2357 96.3896 38.7499 94.6715 38.8664C93.7249 38.9246 92.7723 38.9827 91.8257 39.0409C90.5225 39.0992 89.5057 38.517 88.8454 37.4105C88.1734 36.3041 88.1558 35.1392 88.8278 33.9746C88.8454 33.9163 88.8629 33.8585 88.8746 33.8585L92.036 30.306Z" fill="white"/>
<path d="M104.477 31.6462C104.594 31.8209 104.717 31.9958 104.816 32.1705C105.085 32.7528 105.179 33.3351 105.073 33.9174C104.968 34.5579 104.676 35.0821 104.238 35.4897C103.285 36.3632 101.871 36.538 100.796 35.8974C99.4226 35.0822 98.9668 33.3352 99.8025 31.996C100.556 30.7731 102.193 30.0743 103.706 31.0059C103.753 31.0059 103.8 31.0639 103.846 31.0639L104.477 31.6462Z" fill="white"/>
<path d="M91.0252 41.6614C92.1121 40.4965 93.8361 40.3801 95.0574 41.4867C96.2086 42.4769 96.3021 44.2823 95.2678 45.4472C94.2276 46.612 92.3868 46.7288 91.2355 45.6804C90.0259 44.632 89.9324 42.8845 91.0252 41.6614Z" fill="white"/>
<path d="M98.6922 43.2348C97.5468 42.2447 97.4124 40.4395 98.4 39.2747C99.4461 38.0517 101.234 37.9349 102.444 38.925C102.736 39.1579 102.976 39.4491 103.151 39.7985C103.321 40.148 103.426 40.4978 103.455 40.8473C103.484 41.2549 103.437 41.6043 103.315 42.012C103.192 42.3614 103.005 42.6524 102.754 42.9436C101.684 44.1666 99.9545 44.283 98.6922 43.2348Z" fill="white"/>
<path d="M3.89499 1.01401C4.09952 0.839305 4.29232 0.72272 4.50269 0.606249C6.61228 -0.558462 9.23617 0.839191 9.4407 3.22685C9.52251 4.21685 9.57505 5.2072 9.60427 6.1972C9.65102 7.88603 8.24859 9.40004 6.53053 9.57475C5.58384 9.63298 4.63124 9.69133 3.68455 9.69133C2.38139 9.74957 1.3646 9.16676 0.704253 8.06028C0.0322222 6.95381 0.0147452 5.78944 0.686776 4.62473C0.704308 4.56649 0.721813 4.56638 0.733501 4.50814L3.89499 1.01401Z" fill="white"/>
<path d="M16.3363 2.29515C16.4531 2.46982 16.5759 2.64415 16.6752 2.81883C16.9441 3.40107 17.0375 3.98332 16.9323 4.56556C16.8271 5.20603 16.535 5.73017 16.0967 6.13774C15.1442 7.0111 13.73 7.18589 12.6547 6.54542C11.2814 5.73028 10.8314 3.98343 11.6612 2.64427C12.4151 1.42155 14.0514 0.722746 15.5649 1.65434C15.6117 1.71256 15.6584 1.7129 15.7051 1.7129L16.3363 2.29515Z" fill="white"/>
<path d="M2.88404 12.3119C3.97099 11.1472 5.70078 11.0303 6.91629 12.1368C8.06753 13.185 8.16102 14.9905 7.12666 16.1552C6.08646 17.2617 4.24571 17.3784 3.09448 16.3884C1.8848 15.2819 1.79124 13.5349 2.88404 12.3119Z" fill="white"/>
<path d="M10.5511 13.8841C9.40573 12.894 9.27133 11.0887 10.2589 9.92388C11.305 8.70082 13.099 8.58456 14.3028 9.57466C14.595 9.80762 14.8346 10.0988 15.0099 10.4483C15.1794 10.7977 15.2846 11.1468 15.3138 11.5545C15.343 11.904 15.2962 12.3119 15.1735 12.6613C15.0508 13.0108 14.8638 13.3017 14.6126 13.5929C13.5431 14.816 11.8134 14.9325 10.5511 13.8841Z" fill="white"/>
</svg>
