<svg width="293" height="319" viewBox="0 0 293 319" fill="none" xmlns="http://www.w3.org/2000/svg">
<path opacity="0.5" fill-rule="evenodd" clip-rule="evenodd" d="M6.9 29.5499H62.7V0.149902H78.4V29.5499H136.15V44.6499H6.9V29.5499ZM76.4 31.5499V2.1499H64.7V31.5499H8.9V42.6499H134.15V31.5499H76.4ZM1.8 120.3H78.6728C85.9927 101.012 94.1747 70.9047 98.4374 49.1651L98.8185 47.2214L115.768 50.3747L115.237 52.4461C109.649 74.2697 101.919 101.121 94.7633 120.3H140.35V135.55H1.8V120.3ZM91.8665 122.3C92.1193 121.644 92.3731 120.977 92.6277 120.3C99.6042 101.749 107.189 75.6076 112.801 53.8913C112.969 53.2401 113.135 52.5928 113.3 51.9499L100.4 49.5499C100.4 49.5498 100.4 49.55 100.4 49.5499C96.1742 71.1015 88.1123 100.854 80.8105 120.3C80.5853 120.9 80.3609 121.489 80.1373 122.069C80.1075 122.146 80.0778 122.223 80.048 122.3H3.8V133.55H138.35V122.3H91.8665ZM26.3447 51.7598L40.8542 48.0813L41.506 49.7047C49.5262 69.6796 55.2813 94.9387 56.3461 111.975L56.4513 113.658L41.0833 117.297L40.953 114.909C40.0662 98.651 34.4212 73.352 27.1268 53.8506L26.3447 51.7598ZM42.95 114.8L54.35 112.1C53.3 95.2999 47.6 70.2499 39.65 50.4499L29 53.1499C29.2332 53.7733 29.4647 54.4025 29.6944 55.0371C36.4168 73.6077 41.6315 96.8128 42.819 112.776C42.8702 113.464 42.914 114.139 42.95 114.8ZM173 39.6499H207.65V20.5999H173V39.6499ZM175 22.5999V37.6499H205.65V22.5999H175ZM173 49.8499V68.2999H207.65V49.8499H173ZM175 51.8499V66.2999H205.65V51.8499H175ZM173 115.349C173.662 115.168 174.328 114.985 175 114.8C182.657 112.695 190.949 110.37 199.327 108.004C199.993 107.815 200.66 107.627 201.327 107.439C200.966 106.848 200.601 106.258 200.234 105.669C197.269 100.917 194.115 96.2388 191.006 91.9828C190.603 91.4312 190.201 90.8866 189.8 90.3499L198.8 85.8499C209 98.7499 219.65 116 223.85 127.25L213.95 132.5C213.74 131.885 213.51 131.251 213.262 130.601C211.913 127.062 210.03 123.03 207.797 118.783C207.484 118.188 207.164 117.588 206.837 116.985C206.188 117.184 205.538 117.383 204.886 117.582C187.355 122.94 169.116 128.391 155.6 132.35L151.85 120.95C152.481 120.792 153.13 120.629 153.794 120.46C155.836 119.941 158.029 119.371 160.35 118.759C161.007 118.585 161.674 118.409 162.35 118.229V10.0999H218.15V78.7999H173V115.349ZM175 80.7999V112.726C182.331 110.708 190.232 108.494 198.229 106.236C195.007 101.098 191.562 96.05 188.198 91.547L186.766 89.6308L199.36 83.3338L200.369 84.6094C210.636 97.594 221.423 115.029 225.724 126.55L226.338 128.195L212.816 135.365L212.058 133.147C210.707 129.201 208.53 124.448 205.85 119.379C188.195 124.776 169.784 130.279 156.162 134.269L154.305 134.813L149.278 119.531L151.365 119.01C154.069 118.334 157.087 117.553 160.35 116.69V8.09991H220.15V80.7999H175ZM227.55 8.24991V142.15H242.95V23.4999H270.6V101.6C270.6 101.997 270.573 102.25 270.542 102.405C270.417 102.428 270.214 102.45 269.9 102.45C269.426 102.45 268.778 102.455 267.982 102.462C264.661 102.491 258.768 102.542 252.274 102.301L248.616 102.166L250.478 105.317C252.285 108.375 253.985 113.639 254.258 116.773L254.416 118.6H256.25C261.487 118.6 265.998 118.564 269.755 118.236C273.467 117.912 276.652 117.291 279.171 116.001C281.893 114.76 283.72 112.915 284.805 110.398C285.852 107.971 286.15 105.051 286.15 101.75V8.24991H227.55ZM229.55 10.2499V140.15H240.95V21.4999H272.6V101.6C272.6 103.7 272 104.45 269.9 104.45C269.44 104.45 268.805 104.455 268.02 104.462C265.106 104.487 260.139 104.53 254.525 104.375C253.761 104.354 252.985 104.329 252.2 104.3C252.561 104.911 252.917 105.6 253.26 106.338C254.765 109.584 256.006 113.789 256.25 116.6C266.75 116.6 273.95 116.45 278.3 114.2C282.95 112.1 284.15 108.2 284.15 101.75V10.2499H229.55ZM9.3 181.55H52.75V194.55H9.3V181.55ZM7.8 222.05H54.1V235.05H7.8V222.05ZM7.8 242.15H54.1V255.15H7.8V242.15ZM0 201.35H62.05V205.7H91.2V176.45H106.45V205.7H139.15V220.35H106.45V249.95H136.9V264.45H106.45V298.7H142V313.35H55.8V298.7H91.2V264.45H62.7V249.95H91.2V220.35H60.15V214.8H0V201.35ZM93.2 218.35V251.95H64.7V262.45H93.2V300.7H57.8V311.35H140V300.7H104.45V262.45H134.9V251.95H104.45V218.35H137.15V207.7H104.45V178.45H93.2V207.7H62.15V218.35H93.2ZM6.9 262.25V315.75H21.25V308.4H55.3V262.25H6.9ZM8.9 264.25V313.75H19.25V306.4H53.3V264.25H8.9ZM19.25 297.55H42.65V273.1H19.25V297.55ZM21.25 275.1V295.55H40.65V275.1H21.25ZM11.3 192.55V183.55H50.75V192.55H11.3ZM9.8 233.05V224.05H52.1V233.05H9.8ZM9.8 253.15V244.15H52.1V253.15H9.8ZM60.05 212.8V203.35H2V212.8H60.05ZM164.7 185.3H278.95V239.6H292.3V254.55H278.95V302.65C278.95 305.74 278.649 308.393 277.698 310.588C276.709 312.873 275.083 314.516 272.759 315.681C270.563 316.82 267.881 317.416 264.746 317.745C261.595 318.076 257.829 318.15 253.4 318.15H251.59L251.41 316.349C251.14 313.649 249.584 308.807 248.048 306.014L246.323 302.878L249.897 303.052C254.838 303.293 259.461 303.24 261.942 303.212C262.517 303.205 262.977 303.2 263.3 303.2C263.456 303.2 263.571 303.192 263.654 303.182C263.679 303.04 263.7 302.823 263.7 302.5V254.55H244.9V316.5H230.25V254.55H211.75V316.5H197.25V254.55H179.8V318.45H164.7V254.55H150V239.6H164.7V185.3ZM166.7 241.6H152V252.55H166.7V316.45H177.8V252.55H199.25V314.5H209.75V252.55H232.25V314.5H242.9V252.55H265.7V302.5C265.7 304.45 265.1 305.2 263.3 305.2C262.995 305.2 262.552 305.205 261.993 305.212C259.909 305.236 256.217 305.278 252.096 305.143C251.343 305.118 250.575 305.088 249.8 305.05C250.134 305.658 250.468 306.351 250.791 307.096C252.063 310.03 253.161 313.758 253.4 316.15C262.25 316.15 268.1 315.85 271.85 313.9C275.75 311.95 276.95 308.65 276.95 302.65V252.55H290.3V241.6H276.95V187.3H166.7V241.6ZM265.7 198.4H242.9V241.6H265.7V198.4ZM263.7 239.6V200.4H244.9V239.6H263.7ZM177.8 198.4V241.6H199.25V198.4H177.8ZM209.75 241.6H232.25V198.4H209.75V241.6ZM211.75 239.6H230.25V200.4H211.75V239.6ZM197.25 200.4H179.8V239.6H197.25V200.4Z" fill="white"/>
</svg>
