<svg width="1265" height="74" viewBox="0 0 1265 74" fill="none" xmlns="http://www.w3.org/2000/svg">
<g opacity="0.2">
<path d="M1261.77 72.0938H1252.64L1229.35 14.1348L1206.11 72.0937H1196.93L1225.83 1H1232.96L1261.77 72.0938ZM1264.75 72.0938H1256.69L1255.37 28.7344V1H1264.75V72.0938ZM1202.05 72.0937H1194V1H1203.37V28.7344L1202.05 72.0937Z" fill="white"/>
<path d="M1132.28 8.66602V1H1169.92V8.66602H1132.28ZM1168.02 72.0937V1H1177.44V72.0937H1168.02ZM1137.26 41.5273V33.8613H1169.92V41.5273H1137.26ZM1132.77 72.0937V64.3789H1169.92V72.0937H1132.77Z" fill="white"/>
<path d="M1065.87 38.793V34.3008C1065.87 28.9622 1066.54 24.1771 1067.87 19.9453C1069.21 15.7135 1071.13 12.1165 1073.63 9.1543C1076.14 6.19206 1079.15 3.92969 1082.67 2.36719C1086.15 0.804687 1090.06 0.0234375 1094.39 0.0234375C1098.59 0.0234375 1102.44 0.804687 1105.96 2.36719C1109.44 3.92969 1112.47 6.19206 1115.04 9.1543C1117.58 12.1165 1119.55 15.7135 1120.95 19.9453C1122.35 24.1771 1123.05 28.9622 1123.05 34.3008V38.793C1123.05 44.1315 1122.37 48.9004 1121 53.0996C1119.6 57.3314 1117.63 60.9284 1115.09 63.8906C1112.55 66.8854 1109.54 69.1641 1106.06 70.7266C1102.54 72.2891 1098.68 73.0703 1094.48 73.0703C1090.15 73.0703 1086.25 72.2891 1082.77 70.7266C1079.25 69.1641 1076.24 66.8854 1073.73 63.8906C1071.19 60.9284 1069.26 57.3314 1067.92 53.0996C1066.55 48.9004 1065.87 44.1315 1065.87 38.793ZM1075.2 34.3008V38.8906C1075.2 43.1224 1075.64 46.8659 1076.52 50.1211C1077.36 53.3763 1078.62 56.1107 1080.28 58.3242C1081.94 60.5378 1083.97 62.2142 1086.38 63.3535C1088.76 64.4928 1091.46 65.0625 1094.48 65.0625C1097.41 65.0625 1100.07 64.4928 1102.44 63.3535C1104.79 62.2142 1106.81 60.5378 1108.5 58.3242C1110.16 56.1107 1111.44 53.3763 1112.36 50.1211C1113.27 46.8659 1113.72 43.1224 1113.72 38.8906V34.3008C1113.72 30.0365 1113.27 26.2604 1112.36 22.9727C1111.44 19.7174 1110.14 16.9668 1108.45 14.7207C1106.72 12.5072 1104.69 10.8307 1102.35 9.69141C1099.97 8.55208 1097.32 7.98242 1094.39 7.98242C1091.33 7.98242 1088.61 8.55208 1086.23 9.69141C1083.86 10.8307 1081.85 12.5072 1080.23 14.7207C1078.57 16.9668 1077.31 19.7174 1076.47 22.9727C1075.62 26.2604 1075.2 30.0365 1075.2 34.3008Z" fill="white"/>
<path d="M1048.78 72.0937H1039.65L1016.36 14.1348L993.117 72.0937H983.938L1012.84 1H1019.97L1048.78 72.0937ZM1051.76 72.0937H1043.7L1042.38 28.7344V1H1051.76V72.0937ZM989.064 72.0937H981.008V1H990.383V28.7344L989.064 72.0937Z" fill="white"/>
<path d="M919.289 8.66602V1H956.936V8.66602H919.289ZM955.031 72.0937V1H964.455V72.0937H955.031ZM924.27 41.5273V33.8613L956.936 33.8613V41.5273H924.27ZM919.777 72.0937V64.3789H956.936V72.0937H919.777Z" fill="white"/>
<path d="M852.883 38.793V34.3008C852.883 28.9622 853.55 24.1771 854.885 19.9453C856.219 15.7135 858.14 12.1165 860.646 9.1543C863.153 6.19206 866.164 3.92969 869.68 2.36719C873.163 0.804687 877.069 0.0234375 881.398 0.0234375C885.598 0.0234375 889.455 0.804687 892.971 2.36719C896.454 3.92969 899.481 6.19206 902.053 9.1543C904.592 12.1165 906.561 15.7135 907.961 19.9453C909.361 24.1771 910.061 28.9622 910.061 34.3008V38.793C910.061 44.1315 909.377 48.9004 908.01 53.0996C906.61 57.3314 904.641 60.9284 902.102 63.8906C899.562 66.8854 896.551 69.1641 893.068 70.7266C889.553 72.2891 885.695 73.0703 881.496 73.0703C877.167 73.0703 873.26 72.2891 869.777 70.7266C866.262 69.1641 863.251 66.8854 860.744 63.8906C858.205 60.9284 856.268 57.3314 854.934 53.0996C853.566 48.9004 852.883 44.1315 852.883 38.793ZM862.209 34.3008V38.8906C862.209 43.1224 862.648 46.8659 863.527 50.1211C864.374 53.3763 865.627 56.1107 867.287 58.3242C868.947 60.5378 870.982 62.2142 873.391 63.3535C875.767 64.4928 878.469 65.0625 881.496 65.0625C884.426 65.0625 887.079 64.4928 889.455 63.3535C891.799 62.2142 893.817 60.5378 895.51 58.3242C897.17 56.1107 898.456 53.3763 899.367 50.1211C900.279 46.8659 900.734 43.1224 900.734 38.8906V34.3008C900.734 30.0365 900.279 26.2604 899.367 22.9727C898.456 19.7174 897.154 16.9668 895.461 14.7207C893.736 12.5072 891.701 10.8307 889.357 9.69141C886.981 8.55208 884.328 7.98242 881.398 7.98242C878.339 7.98242 875.62 8.55208 873.244 9.69141C870.868 10.8307 868.866 12.5072 867.238 14.7207C865.578 16.9668 864.325 19.7174 863.479 22.9727C862.632 26.2604 862.209 30.0365 862.209 34.3008Z" fill="white"/>
<path d="M835.793 72.0937H826.662L803.371 14.1348L780.129 72.0937H770.949L799.855 1H806.984L835.793 72.0937ZM838.771 72.0937H830.715L829.396 28.7344V1H838.771V72.0937ZM776.076 72.0937H768.02V1H777.395V28.7344L776.076 72.0937Z" fill="white"/>
<path d="M706.301 8.66602V1L743.947 1V8.66602L706.301 8.66602ZM742.043 72.0937V1L751.467 1V72.0937L742.043 72.0937ZM711.281 41.5273V33.8613L743.947 33.8613V41.5273L711.281 41.5273ZM706.789 72.0937V64.3789L743.947 64.3789V72.0937L706.789 72.0937Z" fill="white"/>
<path d="M639.895 38.793V34.3008C639.895 28.9622 640.562 24.1771 641.896 19.9453C643.231 15.7135 645.152 12.1165 647.658 9.1543C650.165 6.19206 653.176 3.92969 656.691 2.36719C660.174 0.804687 664.081 0.0234375 668.41 0.0234375C672.609 0.0234375 676.467 0.804687 679.982 2.36719C683.465 3.92969 686.493 6.19206 689.064 9.1543C691.604 12.1165 693.573 15.7135 694.973 19.9453C696.372 24.1771 697.072 28.9622 697.072 34.3008V38.793C697.072 44.1315 696.389 48.9004 695.021 53.0996C693.622 57.3314 691.652 60.9284 689.113 63.8906C686.574 66.8854 683.563 69.1641 680.08 70.7266C676.564 72.2891 672.707 73.0703 668.508 73.0703C664.178 73.0703 660.272 72.2891 656.789 70.7266C653.273 69.1641 650.262 66.8854 647.756 63.8906C645.217 60.9284 643.28 57.3314 641.945 53.0996C640.578 48.9004 639.895 44.1315 639.895 38.793ZM649.221 34.3008V38.8906C649.221 43.1224 649.66 46.8659 650.539 50.1211C651.385 53.3763 652.639 56.1107 654.299 58.3242C655.959 60.5378 657.993 62.2142 660.402 63.3535C662.779 64.4928 665.48 65.0625 668.508 65.0625C671.438 65.0625 674.09 64.4928 676.467 63.3535C678.811 62.2142 680.829 60.5378 682.521 58.3242C684.182 56.1107 685.467 53.3763 686.379 50.1211C687.29 46.8659 687.746 43.1224 687.746 38.8906V34.3008C687.746 30.0365 687.29 26.2604 686.379 22.9727C685.467 19.7174 684.165 16.9668 682.473 14.7207C680.747 12.5072 678.713 10.8307 676.369 9.69141C673.993 8.55208 671.34 7.98242 668.41 7.98242C665.35 7.98242 662.632 8.55208 660.256 9.69141C657.88 10.8307 655.878 12.5072 654.25 14.7207C652.59 16.9668 651.337 19.7174 650.49 22.9727C649.644 26.2604 649.221 30.0365 649.221 34.3008Z" fill="white"/>
<path d="M622.805 72.0937H613.674L590.383 14.1348L567.141 72.0937H557.961L586.867 1H593.996L622.805 72.0937ZM625.783 72.0937H617.727L616.408 28.7344V1H625.783V72.0937ZM563.088 72.0937H555.031V1H564.406V28.7344L563.088 72.0937Z" fill="white"/>
<path d="M493.312 8.66602V1L530.959 1V8.66602L493.312 8.66602ZM529.055 72.0937V1H538.479V72.0937H529.055ZM498.293 41.5273V33.8613H530.959V41.5273L498.293 41.5273ZM493.801 72.0937V64.3789L530.959 64.3789V72.0937L493.801 72.0937Z" fill="white"/>
<path d="M426.906 38.793V34.3008C426.906 28.9622 427.574 24.1771 428.908 19.9453C430.243 15.7135 432.163 12.1165 434.67 9.1543C437.176 6.19206 440.188 3.92969 443.703 2.36719C447.186 0.804687 451.092 0.0234375 455.422 0.0234375C459.621 0.0234375 463.479 0.804687 466.994 2.36719C470.477 3.92969 473.505 6.19206 476.076 9.1543C478.615 12.1165 480.585 15.7135 481.984 19.9453C483.384 24.1771 484.084 28.9622 484.084 34.3008V38.793C484.084 44.1315 483.4 48.9004 482.033 53.0996C480.633 57.3314 478.664 60.9284 476.125 63.8906C473.586 66.8854 470.575 69.1641 467.092 70.7266C463.576 72.2891 459.719 73.0703 455.52 73.0703C451.19 73.0703 447.284 72.2891 443.801 70.7266C440.285 69.1641 437.274 66.8854 434.768 63.8906C432.229 60.9284 430.292 57.3314 428.957 53.0996C427.59 48.9004 426.906 44.1315 426.906 38.793ZM436.232 34.3008V38.8906C436.232 43.1224 436.672 46.8659 437.551 50.1211C438.397 53.3763 439.65 56.1107 441.311 58.3242C442.971 60.5378 445.005 62.2142 447.414 63.3535C449.79 64.4928 452.492 65.0625 455.52 65.0625C458.449 65.0625 461.102 64.4928 463.479 63.3535C465.822 62.2142 467.84 60.5378 469.533 58.3242C471.193 56.1107 472.479 53.3763 473.391 50.1211C474.302 46.8659 474.758 43.1224 474.758 38.8906V34.3008C474.758 30.0365 474.302 26.2604 473.391 22.9727C472.479 19.7174 471.177 16.9668 469.484 14.7207C467.759 12.5072 465.725 10.8307 463.381 9.69141C461.005 8.55208 458.352 7.98242 455.422 7.98242C452.362 7.98242 449.644 8.55208 447.268 9.69141C444.891 10.8307 442.889 12.5072 441.262 14.7207C439.602 16.9668 438.348 19.7174 437.502 22.9727C436.656 26.2604 436.232 30.0365 436.232 34.3008Z" fill="white"/>
<path d="M409.816 72.0937H400.686L377.395 14.1348L354.152 72.0937H344.973L373.879 1H381.008L409.816 72.0937ZM412.795 72.0937H404.738L403.42 28.7344V1H412.795V72.0937ZM350.1 72.0937H342.043V1H351.418V28.7344L350.1 72.0937Z" fill="white"/>
<path d="M280.324 8.66602V1H317.971V8.66602H280.324ZM316.066 72.0937V1H325.49V72.0937H316.066ZM285.305 41.5273V33.8613L317.971 33.8613V41.5273L285.305 41.5273ZM280.812 72.0937V64.3789H317.971V72.0937H280.812Z" fill="white"/>
<path d="M213.918 38.793V34.3008C213.918 28.9622 214.585 24.1771 215.92 19.9453C217.255 15.7135 219.175 12.1165 221.682 9.1543C224.188 6.19206 227.199 3.92969 230.715 2.36719C234.198 0.804687 238.104 0.0234375 242.434 0.0234375C246.633 0.0234375 250.49 0.804687 254.006 2.36719C257.489 3.92969 260.516 6.19206 263.088 9.1543C265.627 12.1165 267.596 15.7135 268.996 19.9453C270.396 24.1771 271.096 28.9622 271.096 34.3008V38.793C271.096 44.1315 270.412 48.9004 269.045 53.0996C267.645 57.3314 265.676 60.9284 263.137 63.8906C260.598 66.8854 257.587 69.1641 254.104 70.7266C250.588 72.2891 246.73 73.0703 242.531 73.0703C238.202 73.0703 234.296 72.2891 230.812 70.7266C227.297 69.1641 224.286 66.8854 221.779 63.8906C219.24 60.9284 217.303 57.3314 215.969 53.0996C214.602 48.9004 213.918 44.1315 213.918 38.793ZM223.244 34.3008V38.8906C223.244 43.1224 223.684 46.8659 224.562 50.1211C225.409 53.3763 226.662 56.1107 228.322 58.3242C229.982 60.5378 232.017 62.2142 234.426 63.3535C236.802 64.4928 239.504 65.0625 242.531 65.0625C245.461 65.0625 248.114 64.4928 250.49 63.3535C252.834 62.2142 254.852 60.5378 256.545 58.3242C258.205 56.1107 259.491 53.3763 260.402 50.1211C261.314 46.8659 261.77 43.1224 261.77 38.8906V34.3008C261.77 30.0365 261.314 26.2604 260.402 22.9727C259.491 19.7174 258.189 16.9668 256.496 14.7207C254.771 12.5072 252.736 10.8307 250.393 9.69141C248.016 8.55208 245.363 7.98242 242.434 7.98242C239.374 7.98242 236.656 8.55208 234.279 9.69141C231.903 10.8307 229.901 12.5072 228.273 14.7207C226.613 16.9668 225.36 19.7174 224.514 22.9727C223.667 26.2604 223.244 30.0365 223.244 34.3008Z" fill="white"/>
<path d="M196.828 72.0937H187.697L164.406 14.1348L141.164 72.0937H131.984L160.891 1L168.02 1L196.828 72.0937ZM199.807 72.0937H191.75L190.432 28.7344V1H199.807V72.0937ZM137.111 72.0937H129.055V1H138.43V28.7344L137.111 72.0937Z" fill="white"/>
<path d="M67.3359 8.66602V1H104.982V8.66602H67.3359ZM103.078 72.0937V1H112.502V72.0937H103.078ZM72.3164 41.5273V33.8613L104.982 33.8613V41.5273H72.3164ZM67.8242 72.0937V64.3789H104.982V72.0937H67.8242Z" fill="white"/>
<path d="M0.929688 38.793V34.3008C0.929688 28.9622 1.59701 24.1771 2.93164 19.9453C4.26628 15.7135 6.18685 12.1165 8.69336 9.1543C11.1999 6.19206 14.2109 3.92969 17.7266 2.36719C21.2096 0.804687 25.1159 0.0234375 29.4453 0.0234375C33.6445 0.0234375 37.502 0.804687 41.0176 2.36719C44.5007 3.92969 47.528 6.19206 50.0996 9.1543C52.6387 12.1165 54.6081 15.7135 56.0078 19.9453C57.4076 24.1771 58.1074 28.9622 58.1074 34.3008V38.793C58.1074 44.1315 57.4238 48.9004 56.0566 53.0996C54.6569 57.3314 52.6875 60.9284 50.1484 63.8906C47.6094 66.8854 44.5983 69.1641 41.1152 70.7266C37.5996 72.2891 33.7422 73.0703 29.543 73.0703C25.2135 73.0703 21.3073 72.2891 17.8242 70.7266C14.3086 69.1641 11.2975 66.8854 8.79102 63.8906C6.25195 60.9284 4.3151 57.3314 2.98047 53.0996C1.61328 48.9004 0.929688 44.1315 0.929688 38.793ZM10.2559 34.3008V38.8906C10.2559 43.1224 10.6953 46.8659 11.5742 50.1211C12.4206 53.3763 13.6738 56.1107 15.334 58.3242C16.9941 60.5378 19.0286 62.2142 21.4375 63.3535C23.8138 64.4928 26.5156 65.0625 29.543 65.0625C32.4727 65.0625 35.1257 64.4928 37.502 63.3535C39.8457 62.2142 41.8639 60.5378 43.5566 58.3242C45.2168 56.1107 46.5026 53.3763 47.4141 50.1211C48.3255 46.8659 48.7812 43.1224 48.7812 38.8906V34.3008C48.7812 30.0365 48.3255 26.2604 47.4141 22.9727C46.5026 19.7174 45.2005 16.9668 43.5078 14.7207C41.7826 12.5072 39.748 10.8307 37.4043 9.69141C35.028 8.55208 32.375 7.98242 29.4453 7.98242C26.3854 7.98242 23.6673 8.55208 21.291 9.69141C18.9147 10.8307 16.9128 12.5072 15.2852 14.7207C13.625 16.9668 12.3717 19.7174 11.5254 22.9727C10.679 26.2604 10.2559 30.0365 10.2559 34.3008Z" fill="white"/>
</g>
</svg>
