<svg width="113" height="657" viewBox="0 0 113 657" fill="none" xmlns="http://www.w3.org/2000/svg">
<path fill-rule="evenodd" clip-rule="evenodd" d="M110.641 84.4092H2V68.6587L81.8894 16.5137L2 16.5137V0.37793L110.641 0.37793V16.0547L30.5275 68.4199H110.641V84.4092ZM27.1699 69.4199L109.641 15.5137V1.37793L3 1.37793V15.5137L85.251 15.5137L3 69.2002V83.4092H109.641V69.4199H27.1699ZM4.13696 130.025L4.13838 130.021C6.54327 124.66 10.0259 120.002 14.5759 116.052L14.5806 116.048C19.1359 112.144 24.6502 109.131 31.1039 106.996C37.5706 104.857 44.8571 103.796 52.9512 103.796H59.6895C67.7812 103.796 75.0419 104.832 81.459 106.921L81.4635 106.923C87.9161 109.057 93.4296 112.07 97.9844 115.973C102.586 119.875 106.096 124.511 108.502 129.875L108.504 129.878C110.909 135.291 112.105 141.217 112.105 147.643C112.105 154.258 110.911 160.259 108.503 165.628C106.097 171.041 102.587 175.678 97.9829 179.533C93.4258 183.438 87.9095 186.402 81.4545 188.439C75.0384 190.527 67.7793 191.562 59.6895 191.562H52.9512C44.8614 191.562 37.5796 190.551 31.1172 188.513C24.661 186.477 19.1437 183.537 14.5855 179.68C10.0281 175.824 6.54248 171.186 4.13696 165.773C1.72914 160.405 0.535156 154.404 0.535156 147.789C0.535156 141.363 1.73137 135.437 4.13696 130.025ZM5.05078 165.367C7.39453 170.641 10.7881 175.157 15.2314 178.917C19.6748 182.677 25.0703 185.558 31.418 187.56C37.7656 189.562 44.9434 190.562 52.9512 190.562H59.6895C67.6973 190.562 74.8506 189.537 81.1494 187.486C87.4971 185.484 92.8926 182.579 97.3359 178.771C101.828 175.011 105.246 170.494 107.59 165.221C109.934 159.996 111.105 154.137 111.105 147.643C111.105 141.344 109.934 135.558 107.59 130.284C105.246 125.06 101.828 120.543 97.3359 116.734C92.8926 112.926 87.4971 109.972 81.1494 107.872C74.8506 105.821 67.6973 104.796 59.6895 104.796H52.9512C44.9434 104.796 37.7656 105.846 31.418 107.945C25.0703 110.045 19.6748 112.999 15.2314 116.808C10.7881 120.665 7.39453 125.206 5.05078 130.431C2.70703 135.704 1.53516 141.49 1.53516 147.789C1.53516 154.283 2.70703 160.143 5.05078 165.367ZM76.421 173.63L76.43 173.628C81.2133 172.384 85.1899 170.553 88.3863 168.156C91.5817 165.76 93.9896 162.834 95.6263 159.373L95.6285 159.368C97.2639 155.958 98.0938 152.056 98.0938 147.643C98.0938 143.382 97.2664 139.554 95.63 136.139C93.9945 132.776 91.5855 129.869 88.3828 127.419C85.1815 125.019 81.1995 123.139 76.412 121.799C71.6358 120.462 66.1143 119.785 59.8359 119.785H52.9512C46.6246 119.785 41.0542 120.461 36.2286 121.799C31.4453 123.138 27.4398 125.041 24.1892 127.489C20.984 129.989 18.5737 132.921 16.9377 136.285C15.3011 139.7 14.4736 143.528 14.4736 147.789C14.4736 152.253 15.3042 156.179 16.9388 159.588C18.5738 162.998 20.9795 165.875 24.1734 168.224L24.1754 168.225C27.4226 170.625 31.4255 172.457 36.2083 173.701C41.0408 174.945 46.6184 175.573 52.9512 175.573H59.8359C66.1169 175.573 71.6415 174.921 76.421 173.63ZM35.959 174.669C31.0762 173.399 26.9502 171.52 23.5811 169.029C20.2607 166.588 17.7461 163.585 16.0371 160.021C14.3281 156.456 13.4736 152.379 13.4736 147.789C13.4736 143.395 14.3281 139.415 16.0371 135.851C17.7461 132.335 20.2607 129.283 23.5811 126.695C26.9502 124.156 31.0762 122.203 35.959 120.836C40.8906 119.469 46.5547 118.785 52.9512 118.785H59.8359C66.1836 118.785 71.7988 119.469 76.6816 120.836C81.5645 122.203 85.666 124.132 88.9863 126.622C92.3066 129.161 94.8213 132.188 96.5303 135.704C98.2393 139.269 99.0938 143.248 99.0938 147.643C99.0938 152.184 98.2393 156.236 96.5303 159.801C94.8213 163.414 92.3066 166.466 88.9863 168.956C85.666 171.446 81.5645 173.326 76.6816 174.596C71.7988 175.914 66.1836 176.573 59.8359 176.573H52.9512C46.5547 176.573 40.8906 175.938 35.959 174.669ZM109.641 200.963H98.0684V235.167H3V249.083H98.0684V283.36H109.641V200.963ZM97.0684 250.083H2V234.167H97.0684V199.963H110.641V284.36H97.0684V250.083ZM109.641 333.458H3V347.594H50.0947V392.271H61.667V347.594H98.0684V399.522H109.641L109.641 333.458ZM97.0684 348.594H62.667V393.271H49.0947V348.594H2L2 332.458H110.641L110.641 400.522H97.0684V348.594ZM110.641 432.529H2V416.394H110.641V432.529ZM109.641 431.529V417.394H3V431.529H109.641Z" fill="#F6BC54"/>
<path fill-rule="evenodd" clip-rule="evenodd" d="M110.641 554.409H2V538.659L81.8894 486.514H2V470.378H110.641V486.055L30.5275 538.42H110.641V554.409ZM27.1699 539.42L109.641 485.514V471.378H3V485.514H85.251L3 539.2V553.409H109.641V539.42H27.1699ZM3 578.458H109.641L109.641 608.634C109.641 615.616 108.469 621.988 106.125 627.75C103.83 633.512 100.485 638.468 96.0908 642.618C91.7451 646.817 86.4717 650.04 80.2705 652.286C74.1182 654.532 67.1846 655.655 59.4697 655.655H53.0977C45.3828 655.655 38.4248 654.532 32.2236 652.286C26.0713 650.04 20.8223 646.793 16.4766 642.545C12.1309 638.346 8.78613 633.268 6.44238 627.311C4.14746 621.402 3 614.737 3 607.315L3 578.458ZM14.499 592.594V607.315C14.499 614.933 16.0859 621.28 19.2598 626.358C22.4824 631.437 26.9746 635.245 32.7363 637.784C38.5469 640.372 45.334 641.666 53.0977 641.666H59.6162C65.7197 641.666 71.1396 640.934 75.876 639.469C80.6611 638.004 84.6895 635.855 87.9609 633.023C91.2813 630.191 93.7959 626.725 95.5049 622.623C97.2139 618.57 98.0684 613.907 98.0684 608.634L98.0684 592.594H14.499ZM15.499 593.594V607.315C15.499 614.794 17.0563 620.945 20.1059 625.825C23.2171 630.727 27.5513 634.406 33.1396 636.869L33.1432 636.871C38.8007 639.39 45.444 640.666 53.0977 640.666H59.6162C65.6418 640.666 70.959 639.943 75.5805 638.513L75.5833 638.513C80.2559 637.082 84.1555 634.995 87.3064 632.267L87.312 632.263C90.5104 629.535 92.9322 626.198 94.5818 622.238L94.5834 622.234C96.2313 618.327 97.0684 613.8 97.0684 608.634L97.0684 593.594H15.499ZM2 577.458H110.641L110.641 608.634C110.641 615.728 109.45 622.229 107.053 628.124C104.706 634.014 101.281 639.091 96.7809 643.342C92.3261 647.645 86.9305 650.937 80.6118 653.226C74.3323 655.518 67.2805 656.655 59.4697 656.655H53.0977C45.286 656.655 38.2102 655.518 31.8831 653.226L31.8807 653.225C25.606 650.935 20.2331 647.615 15.7784 643.261C11.3253 638.957 7.90421 633.757 5.51181 627.677L5.51022 627.673C3.16351 621.631 2 614.84 2 607.315L2 577.458Z" fill="white"/>
</svg>
