<svg width="467" height="249" viewBox="0 0 467 249" fill="none" xmlns="http://www.w3.org/2000/svg">
<path d="M316.343 140.973V168.072C316.343 182.639 315.041 194.928 312.437 204.938C309.832 214.947 306.089 223.004 301.206 229.107C296.323 235.211 290.423 239.646 283.506 242.413C276.67 245.099 268.939 246.441 260.312 246.441C253.477 246.441 247.17 245.587 241.392 243.878C235.614 242.169 230.405 239.443 225.767 235.699C221.209 231.874 217.303 226.91 214.048 220.807C210.793 214.703 208.311 207.298 206.602 198.59C204.893 189.882 204.038 179.71 204.038 168.072V140.973C204.038 126.406 205.34 114.199 207.944 104.352C210.63 94.5046 214.414 86.6107 219.297 80.6699C224.18 74.6478 230.039 70.3346 236.875 67.7305C243.792 65.1263 251.523 63.8242 260.068 63.8242C266.986 63.8242 273.333 64.6787 279.111 66.3877C284.971 68.0153 290.179 70.6602 294.736 74.3223C299.294 77.903 303.159 82.7044 306.333 88.7266C309.588 94.6673 312.07 101.951 313.779 110.577C315.488 119.203 316.343 129.335 316.343 140.973ZM293.638 171.734V137.188C293.638 129.213 293.149 122.215 292.173 116.192C291.278 110.089 289.935 104.881 288.145 100.567C286.354 96.2542 284.076 92.7549 281.309 90.0693C278.623 87.3838 275.49 85.4307 271.909 84.21C268.41 82.9079 264.463 82.2568 260.068 82.2568C254.697 82.2568 249.937 83.2741 245.786 85.3086C241.636 87.2617 238.136 90.3949 235.288 94.708C232.521 99.0212 230.405 104.677 228.94 111.676C227.476 118.674 226.743 127.179 226.743 137.188V171.734C226.743 179.71 227.191 186.749 228.086 192.853C229.062 198.956 230.487 204.246 232.358 208.722C234.23 213.116 236.509 216.738 239.194 219.586C241.88 222.434 244.972 224.55 248.472 225.934C252.052 227.236 255.999 227.887 260.312 227.887C265.846 227.887 270.688 226.829 274.839 224.713C278.989 222.597 282.448 219.301 285.215 214.825C288.063 210.268 290.179 204.449 291.562 197.369C292.946 190.208 293.638 181.663 293.638 171.734Z" fill="#F6BC54"/>
<path d="M465.513 184.186V202.74H337.095V189.435L416.685 66.2656H435.117L415.342 101.91L362.729 184.186H465.513ZM440.732 66.2656V244H418.149V66.2656H440.732Z" fill="#F6BC54"/>
<path fill-rule="evenodd" clip-rule="evenodd" d="M283.877 243.342L283.872 243.344C276.901 246.082 269.042 247.441 260.312 247.441C253.393 247.441 246.989 246.576 241.108 244.837C235.206 243.091 229.88 240.304 225.139 236.477L225.131 236.471L225.124 236.465C220.454 232.546 216.471 227.476 213.165 221.277C209.853 215.066 207.343 207.561 205.62 198.782C203.896 189.995 203.038 179.756 203.038 168.072V140.973C203.038 126.353 204.344 114.054 206.978 104.096L206.98 104.088C209.69 94.149 213.527 86.1163 218.522 80.0374C223.509 73.8883 229.51 69.4663 236.519 66.796L236.523 66.7946C243.569 64.142 251.422 62.8242 260.068 62.8242C267.065 62.8242 273.507 63.6881 279.387 65.4264C285.367 67.0886 290.694 69.7922 295.358 73.5393C300.04 77.2188 303.988 82.1334 307.214 88.2531C310.528 94.3042 313.038 101.688 314.76 110.383C316.485 119.09 317.343 129.29 317.343 140.973V168.072C317.343 182.693 316.037 195.071 313.404 205.189C310.776 215.293 306.981 223.489 301.987 229.732C297.002 235.964 290.963 240.507 283.877 243.342ZM306.333 88.7266C303.159 82.7044 299.294 77.903 294.736 74.3223C290.179 70.6602 284.971 68.0153 279.111 66.3877C273.333 64.6787 266.986 63.8242 260.068 63.8242C251.523 63.8242 243.792 65.1263 236.875 67.7305C230.039 70.3346 224.18 74.6478 219.297 80.6699C214.414 86.6107 210.63 94.5046 207.944 104.352C205.34 114.199 204.038 126.406 204.038 140.973V168.072C204.038 179.71 204.893 189.882 206.602 198.59C208.311 207.298 210.793 214.703 214.048 220.807C217.303 226.91 221.209 231.874 225.767 235.699C230.405 239.443 235.614 242.169 241.392 243.878C247.17 245.587 253.477 246.441 260.312 246.441C268.939 246.441 276.67 245.099 283.506 242.413C290.423 239.646 296.323 235.211 301.206 229.107C306.089 223.004 309.832 214.947 312.437 204.938C315.041 194.928 316.343 182.639 316.343 168.072V140.973C316.343 129.335 315.488 119.203 313.779 110.577C312.07 101.951 309.588 94.6673 306.333 88.7266ZM291.185 116.345L291.183 116.337C290.297 110.291 288.971 105.168 287.221 100.951C285.472 96.7374 283.263 93.3599 280.612 90.7869L280.607 90.7817L280.601 90.7764C278.024 88.1986 275.022 86.3276 271.587 85.1565L271.573 85.152L271.56 85.1472C268.191 83.8932 264.364 83.2568 260.068 83.2568C254.825 83.2568 250.219 84.2492 246.226 86.2065L246.219 86.21L246.212 86.2134C242.25 88.078 238.886 91.0766 236.126 95.2536C233.447 99.4319 231.368 104.961 229.919 111.881C228.473 118.791 227.743 127.222 227.743 137.188V171.734C227.743 179.671 228.189 186.658 229.074 192.701C230.041 198.742 231.447 203.949 233.28 208.333C235.115 212.64 237.334 216.155 239.922 218.9C242.508 221.642 245.474 223.671 248.827 224.999C252.281 226.253 256.106 226.887 260.312 226.887C265.718 226.887 270.399 225.854 274.385 223.822C278.352 221.8 281.681 218.64 284.364 214.299L284.367 214.295C287.132 209.871 289.213 204.177 290.581 197.179C291.949 190.098 292.638 181.62 292.638 171.734V137.188C292.638 129.252 292.152 122.308 291.186 116.352L291.185 116.345ZM291.562 197.369C290.179 204.449 288.063 210.268 285.215 214.825C282.448 219.301 278.989 222.597 274.839 224.713C270.688 226.829 265.846 227.887 260.312 227.887C255.999 227.887 252.052 227.236 248.472 225.934C244.972 224.55 241.88 222.434 239.194 219.586C236.509 216.738 234.23 213.116 232.358 208.722C230.487 204.246 229.062 198.956 228.086 192.853C227.191 186.749 226.743 179.71 226.743 171.734V137.188C226.743 127.179 227.476 118.674 228.94 111.676C230.405 104.677 232.521 99.0212 235.288 94.708C238.136 90.3949 241.636 87.2617 245.786 85.3086C249.937 83.2741 254.697 82.2568 260.068 82.2568C264.463 82.2568 268.41 82.9079 271.909 84.21C275.49 85.4307 278.623 87.3838 281.309 90.0693C284.076 92.7549 286.354 96.2542 288.145 100.567C289.935 104.881 291.278 110.089 292.173 116.192C293.149 122.215 293.638 129.213 293.638 137.188V171.734C293.638 181.663 292.946 190.208 291.562 197.369ZM466.513 183.186V203.74H441.732V245H417.149V203.74H336.095V189.14L416.14 65.2656H441.732V183.186H466.513ZM440.732 184.186H465.513V202.74H440.732V244H418.149V202.74H337.095V189.435L416.685 66.2656H440.732V184.186ZM418.149 184.186H362.729L415.342 101.91L418.149 96.8495V184.186ZM417.149 183.186V100.713L416.201 102.423L364.556 183.186H417.149Z" fill="#F6BC54"/>
<path d="M179.843 165.26V191.236H0.0576172V172.608L111.483 0.171875H137.289L109.604 50.0742L35.9463 165.26H179.843ZM145.15 0.171875V249H113.534V0.171875H145.15Z" fill="#6A5F4B"/>
<path d="M201.142 48.2191C201.46 47.1539 201.717 46.0732 202.097 45.0359C203.185 42.1794 205.16 39.747 207.733 38.0961C210.305 36.4452 213.339 35.6629 216.389 35.864C222.951 36.3593 228.391 41.0602 229.623 47.3083C231.189 55.263 226.305 62.86 218.391 64.4053C211.263 65.8068 203.2 61.9814 201.469 53.208C201.4 52.9657 201.309 52.7304 201.196 52.505L201.142 48.2191Z" fill="#F6BC54"/>
<path fill-rule="evenodd" clip-rule="evenodd" d="M218.391 64.4053C226.305 62.86 231.189 55.263 229.623 47.3083C228.391 41.0602 222.951 36.3593 216.389 35.864C213.339 35.6629 210.305 36.4452 207.733 38.0961C205.16 39.747 203.185 42.1794 202.097 45.0359C201.842 45.7335 201.642 46.4508 201.441 47.1698C201.344 47.5198 201.246 47.8703 201.142 48.2191L201.196 52.505C201.309 52.7304 201.4 52.9657 201.469 53.208C203.2 61.9814 211.263 65.8068 218.391 64.4053ZM203.191 52.0686C203.268 52.2614 203.335 52.4582 203.392 52.6582L203.415 52.7387L203.432 52.8209C204.914 60.3324 211.772 63.6683 218.005 62.4429L218.007 62.4424C224.786 61.1188 229.023 54.6153 227.66 47.6952M203.191 52.0686L203.146 48.4952C203.237 48.1797 203.319 47.8864 203.396 47.6069C203.581 46.9435 203.744 46.3575 203.971 45.7358C204.907 43.2842 206.604 41.1968 208.813 39.7793C211.022 38.3612 213.628 37.6883 216.248 37.859C221.952 38.2937 226.611 42.3736 227.66 47.6946" fill="#F6BC54"/>
<path d="M303.702 64.5897C295.486 64.6852 289.266 58.5563 289.166 50.2865C289.075 42.4902 295.499 35.9449 303.36 35.8332C311.221 35.7214 317.935 42.1957 317.989 50.0251C318.032 58.2752 311.923 64.5023 303.702 64.5897Z" fill="#F6BC54"/>
<path fill-rule="evenodd" clip-rule="evenodd" d="M303.679 62.5898L303.681 62.5898C310.795 62.5142 316.025 57.1925 315.989 50.0371C315.941 43.3396 310.16 37.7367 303.388 37.8329C296.616 37.9293 291.089 43.583 291.166 50.2623M317.989 50.0251C317.935 42.1957 311.221 35.7214 303.36 35.8332C295.499 35.9449 289.075 42.4902 289.166 50.2865C289.266 58.5563 295.486 64.6852 303.702 64.5897C311.923 64.5023 318.032 58.2752 317.989 50.0251ZM303.679 62.5898C296.582 62.6723 291.253 57.4436 291.166 50.2633Z" fill="#F6BC54"/>
<path d="M274.043 35.3263C274.303 42.9166 267.96 49.6569 260.312 49.9172C252.204 50.1952 245.511 44.084 245.181 36.1027C245.089 34.1975 245.38 32.2931 246.037 30.5025C246.695 28.712 247.705 27.0718 249.009 25.6794C250.312 24.287 251.883 23.1706 253.626 22.3967C255.369 21.6228 257.25 21.2071 259.157 21.1742C267.397 20.9192 273.746 26.9567 274.043 35.3263Z" fill="#F6BC54"/>
<path fill-rule="evenodd" clip-rule="evenodd" d="M260.312 49.9172C267.96 49.6569 274.303 42.9166 274.043 35.3263C273.746 26.9567 267.397 20.9192 259.157 21.1742C257.25 21.2071 255.369 21.6228 253.626 22.3967C251.883 23.1706 250.312 24.287 249.009 25.6794C247.705 27.0718 246.695 28.712 246.037 30.5025C245.38 32.2931 245.089 34.1975 245.181 36.1027C245.511 44.084 252.204 50.1952 260.312 49.9172ZM272.044 35.3958C272.265 41.8674 266.801 47.6952 260.244 47.9184L260.244 47.9184C253.205 48.1597 247.463 42.8747 247.18 36.0202L247.179 36.0128L247.179 36.0055C247.099 34.3679 247.349 32.731 247.915 31.1919C248.48 29.6529 249.348 28.2431 250.469 27.0463C251.589 25.8494 252.939 24.8899 254.437 24.2247C255.936 23.5595 257.553 23.2021 259.192 23.1739L259.206 23.1736L259.219 23.1732C266.328 22.9532 271.784 28.0971 272.044 35.3958Z" fill="#F6BC54"/>
<path d="M249 122C249 115.373 254.373 110 261 110V110C267.627 110 273 115.373 273 122V184C273 190.627 267.627 196 261 196V196C254.373 196 249 190.627 249 184V122Z" fill="#F6BC54"/>
</svg>
