<svg width="232" height="112" viewBox="0 0 232 112" fill="none" xmlns="http://www.w3.org/2000/svg">
<path fill-rule="evenodd" clip-rule="evenodd" d="M47.6603 5.40338C44.5847 7.58168 42.75 10.5359 42.75 13.7348C42.75 16.9337 44.5847 19.8879 47.6603 22.0662C50.7419 24.2434 55.0287 25.6089 59.7847 25.6089H180.684C185.44 25.6089 189.727 24.2434 192.808 22.0662C195.884 19.8879 197.719 16.9337 197.719 13.7348C197.719 10.5359 195.884 7.58168 192.808 5.40338C189.727 3.22627 185.44 1.86075 180.684 1.86075H59.7847C55.0287 1.86075 50.7419 3.22627 47.6603 5.40338ZM46.9775 4.43386C50.2787 2.09883 54.809 0.67334 59.7847 0.67334H180.684C185.66 0.67334 190.19 2.09883 193.491 4.43386C196.793 6.76831 198.906 10.0479 198.906 13.7348C198.906 17.4217 196.793 20.7013 193.491 23.0358C190.19 25.3708 185.66 26.7963 180.684 26.7963H59.7847C54.809 26.7963 50.2787 25.3708 46.9775 23.0358C43.6762 20.7013 41.5625 17.4217 41.5625 13.7348C41.5625 10.0479 43.6762 6.76831 46.9775 4.43386Z" fill="#F6BC54"/>
<path d="M69.457 8.20117V9.10361H80.0258V8.20117H69.457ZM74.0289 8.91362V18.2347H74.967V8.91362H74.0289ZM74.5514 11.7278C75.9883 12.464 77.8408 13.592 78.7551 14.3282L79.3845 13.5208C78.4345 12.8083 76.5583 11.7278 75.1333 11.0391L74.5514 11.7278Z" fill="#F6BC54"/>
<path d="M83.5168 12.0127H81.2131V12.8439H82.6737V16.2161H83.5168V12.0127ZM83.5168 15.8599H82.7568C82.2105 16.3824 81.5812 16.9167 81.0706 17.3085L81.5336 18.1516C82.1036 17.6173 82.6381 17.1067 83.1487 16.5961C83.8968 17.5341 84.9774 17.9616 86.5568 18.021C87.9105 18.0685 90.4993 18.0447 91.853 17.9854C91.8886 17.736 92.0312 17.3323 92.1381 17.1423C90.6774 17.2373 87.8868 17.2729 86.5449 17.2135C85.1318 17.1542 84.0749 16.7504 83.5168 15.8599ZM81.2724 8.04677C81.9612 8.64048 82.733 9.49539 83.0418 10.0891L83.7899 9.59039C83.4574 8.98481 82.6618 8.1655 81.9612 7.60742L81.2724 8.04677ZM85.3336 7.78554V8.5336H90.903V7.78554H85.3336ZM86.2243 9.61414V10.2672H89.9411V9.61414H86.2243ZM86.1174 11.229V11.8821H90.0481V11.229H86.1174ZM87.6374 8.77109V11.5971H88.3974V8.77109H87.6374ZM84.8587 7.78554V10.8728C84.8587 12.3927 84.7636 14.4825 83.8374 15.9786C84.0274 16.0618 84.3837 16.2874 84.538 16.4417C85.5237 14.8506 85.6781 12.5233 85.6781 10.8728V7.78554H84.8587ZM90.5111 7.78554V15.5868C90.5111 15.753 90.4518 15.8005 90.2856 15.8124C90.1312 15.8124 89.5849 15.8124 88.9912 15.8005C89.098 16.0143 89.2168 16.3467 89.2406 16.5723C90.0956 16.5723 90.6062 16.5605 90.9149 16.4299C91.2237 16.2874 91.3305 16.0618 91.3305 15.5987V7.78554H90.5111ZM86.7824 12.547V13.1882H88.9199V14.5181H86.7824V15.1593H89.6324V12.547H86.7824ZM86.438 12.547V15.7649H87.1505V12.547H86.438Z" fill="#F6BC54"/>
<path d="M93.0881 13.8179V14.566H103.894V13.8179H93.0881ZM93.3731 7.84521V8.62891H103.597V7.84521H93.3731ZM97.2087 12.5711C96.4725 13.7348 95.3681 15.3259 94.6081 16.2877L95.4512 16.5727C96.2112 15.599 97.3038 14.0435 98.0756 12.8086L97.2087 12.5711ZM100.771 14.0791C99.8212 16.3946 97.4938 17.2376 93.2544 17.4632C93.3969 17.6651 93.5394 17.9857 93.5988 18.2469C98.0519 17.9145 100.581 16.9408 101.626 14.3285L100.771 14.0791ZM95.2494 16.169C98.2656 16.727 101.175 17.5345 102.992 18.2825L103.526 17.5582C101.686 16.8339 98.6338 16.0383 95.7006 15.5159L95.2494 16.169ZM96.615 8.14207V12.2861H97.4581V8.14207H96.615ZM99.3819 8.14207V12.2861H100.225V8.14207H99.3819ZM94.7981 10.3744H102.208V11.9893H94.7981V10.3744ZM93.9669 9.65008V12.7255H103.099V9.65008H93.9669Z" fill="#F6BC54"/>
<path d="M104.892 13.6158L105.153 14.5064C106.352 14.162 107.944 13.6752 109.44 13.224L109.333 12.3928C107.718 12.844 106.02 13.3309 104.892 13.6158ZM104.999 9.72115V10.5761H109.321V9.72115H104.999ZM106.78 7.33447V17.0712C106.78 17.2374 106.721 17.2968 106.554 17.2968C106.4 17.2968 105.877 17.2968 105.319 17.2849C105.438 17.5224 105.569 17.8905 105.592 18.128C106.424 18.128 106.911 18.1161 107.243 17.9618C107.552 17.8193 107.671 17.5818 107.671 17.0712V7.33447H106.78ZM109.381 8.33189V9.21058H115.841V8.33189H109.381ZM112.765 8.64063V16.9406C112.765 17.1543 112.694 17.2256 112.456 17.2374C112.195 17.2493 111.34 17.2493 110.461 17.2137C110.604 17.4749 110.77 17.9143 110.817 18.1874C111.946 18.1874 112.694 18.1755 113.133 18.0093C113.572 17.8549 113.715 17.558 113.715 16.9406V8.64063H112.765Z" fill="#F6BC54"/>
<path d="M121.79 14.8508V18.2467H122.669V14.8508H121.79ZM117.8 15.6463V18.0567H118.667V16.2994H126.362V15.6463H117.8ZM126.029 15.6463V17.2018C126.029 17.3324 125.982 17.3681 125.804 17.3799C125.625 17.3918 125.055 17.3918 124.367 17.368C124.485 17.5699 124.616 17.8193 124.664 18.0449C125.53 18.0449 126.1 18.0449 126.457 17.938C126.801 17.8193 126.896 17.6174 126.896 17.2018V15.6463H126.029ZM122.336 8.39126V9.07996H127.561V8.39126H122.336ZM117.479 7.97566V8.48626H121.897V7.97566H117.479ZM117.301 10.1368V10.6592H122.039V10.1368H117.301ZM117.052 9.04434V9.57867H122.253V9.04434H117.052ZM122.894 9.61429C123.334 10.0299 123.797 10.6355 123.999 11.0511L124.628 10.6711C124.414 10.2674 123.927 9.68554 123.488 9.28182L122.894 9.61429ZM116.98 11.4666L117.052 12.0841C118.429 11.9654 120.389 11.7873 122.289 11.6091L122.3 11.0629C120.317 11.2292 118.31 11.3835 116.98 11.4666ZM125.435 7.34634V11.1698C125.435 11.3004 125.4 11.3479 125.234 11.3479C125.103 11.3479 124.616 11.3479 124.046 11.3479C124.165 11.526 124.307 11.7991 124.355 12.001C125.091 12.001 125.554 12.001 125.875 11.8822C126.184 11.7635 126.279 11.5854 126.279 11.1817V7.34634H125.435ZM119.237 7.33447V9.40057H120.068V7.33447H119.237ZM119.237 9.40057V11.6329H120.068V9.40057H119.237ZM119.165 13.9721H125.412V14.5183H119.165V13.9721ZM119.165 12.9153H125.412V13.4377H119.165V12.9153ZM118.358 12.3572V15.0645H126.243V12.3572H118.358ZM122.075 11.526C121.992 11.7872 121.802 12.2028 121.671 12.4997L122.348 12.6778C122.502 12.4284 122.704 12.0841 122.906 11.716L122.075 11.526Z" fill="#F6BC54"/>
<path d="M132.917 9.09188V16.3944C132.917 17.7006 133.333 18.0449 134.781 18.0449C135.102 18.0449 137.477 18.0449 137.821 18.0449C139.128 18.0449 139.436 17.5225 139.591 15.872C139.318 15.8007 138.938 15.6582 138.712 15.492C138.629 16.8694 138.51 17.1781 137.786 17.1781C137.287 17.1781 135.221 17.1781 134.817 17.1781C133.986 17.1781 133.831 17.0356 133.831 16.4063V9.09188H132.917ZM137.216 7.40576C135.375 8.1657 131.979 8.81878 129.022 9.21063C129.141 9.41248 129.259 9.7687 129.295 9.98243C132.311 9.60246 135.755 8.97315 137.976 8.11821L137.216 7.40576ZM129.248 11.7398L129.378 12.5829L138.498 11.3123L138.368 10.4811L129.248 11.7398ZM128.879 14.459L129.01 15.3139L139.294 13.9603L139.175 13.1291L128.879 14.459Z" fill="#F6BC54"/>
<path d="M140.422 12.8323L140.636 13.6873C141.811 13.426 143.438 13.0698 144.97 12.7254L144.911 11.918C143.26 12.2742 141.55 12.6186 140.422 12.8323ZM140.766 8.04707V8.89012H144.364V8.04707H140.766ZM142.298 10.4575V17.1663C142.298 17.3088 142.262 17.3563 142.096 17.3563C141.942 17.3563 141.431 17.3563 140.861 17.3445C140.992 17.6057 141.111 17.9975 141.146 18.2469C141.882 18.2469 142.417 18.2231 142.738 18.0807C143.058 17.9263 143.153 17.6651 143.153 17.1663V10.4575H142.298ZM144.186 8.04707V8.23704C143.83 8.96136 143.094 9.99442 142.441 10.5881C142.619 10.7306 142.88 10.9918 143.011 11.1699C143.771 10.4812 144.638 9.38883 145.196 8.40328L144.578 7.9877L144.4 8.04707H144.186ZM144.768 8.9495V9.75692H151.406V8.9495H144.768ZM147.618 7.32275V9.31759H148.497V7.32275H147.618ZM147.488 9.49569C147.036 10.2319 146.241 11.2412 145.635 11.8468L146.359 12.2149C146.965 11.6212 147.725 10.7069 148.319 9.89942L147.488 9.49569ZM144.863 11.6924C145.682 12.3455 146.68 13.2954 147.155 13.901L147.737 13.2123C147.262 12.6305 146.276 11.7518 145.409 11.0987L144.863 11.6924ZM149.482 10.7069C148.402 12.4523 146.407 14.0435 144.376 14.934C144.578 15.1121 144.816 15.3971 144.958 15.599C147.072 14.6134 149.067 12.9392 150.278 11.0512L149.482 10.7069ZM150.409 12.9392C149.138 14.9222 146.787 16.5964 144.281 17.4988C144.495 17.7126 144.732 18.0213 144.863 18.235C147.44 17.2257 149.791 15.4565 151.181 13.3191L150.409 12.9392ZM148.283 15.9077C149.174 16.6201 150.29 17.6294 150.824 18.2706L151.561 17.6176C151.002 16.9882 149.862 16.0146 148.96 15.3377L148.283 15.9077Z" fill="#F6BC54"/>
<path d="M157.367 10.1724V10.9442H160.716V10.1724H157.367ZM156.026 13.7108V14.4589H161.536V13.7108H156.026ZM160.217 10.1724V12.1672C160.217 12.9746 160.431 13.1884 161.251 13.1884C161.417 13.1884 162.141 13.1884 162.319 13.1884C162.996 13.1884 163.21 12.8797 163.281 11.6448C163.056 11.5854 162.699 11.4548 162.533 11.3242C162.509 12.3097 162.462 12.4522 162.212 12.4522C162.058 12.4522 161.5 12.4522 161.369 12.4522C161.12 12.4522 161.084 12.4166 161.084 12.1672V10.1724H160.217ZM156.952 10.1724V11.2529C156.952 11.8941 156.726 12.5234 155.361 12.9984C155.527 13.129 155.812 13.4734 155.907 13.6515C157.451 13.0815 157.783 12.1553 157.783 11.2885V10.1724H156.952ZM161.239 13.7108V13.8415C160.348 16.1094 157.807 17.1662 155.052 17.5105C155.206 17.7005 155.384 18.033 155.456 18.2586C158.424 17.7718 161.072 16.6556 162.141 13.9246L161.583 13.6752L161.417 13.7108H161.239ZM157.51 14.4114L156.702 14.6251C157.771 16.7862 159.849 17.8905 162.937 18.2705C163.044 18.0211 163.269 17.653 163.459 17.463C160.491 17.1899 158.412 16.24 157.51 14.4114ZM154.779 8.66436V9.47181H163.305V8.66436H154.779ZM154.292 8.66436V12.2028C154.292 13.9127 154.126 16.0975 152.617 17.6412C152.796 17.7599 153.128 18.0686 153.259 18.2349C154.897 16.6081 155.135 14.0552 155.135 12.2147V8.66436H154.292ZM157.985 7.33447V9.22244H158.923V7.33447H157.985ZM152.463 9.9349C152.867 10.6473 153.247 11.5854 153.377 12.1791L154.09 11.811C153.959 11.2292 153.556 10.3149 153.128 9.62616L152.463 9.9349ZM152.285 14.2689L152.594 15.0882C153.247 14.732 153.983 14.2927 154.696 13.8771L154.482 13.1765C153.651 13.604 152.855 14.0196 152.285 14.2689Z" fill="#F6BC54"/>
<path d="M166.036 16.9168V17.7361H173.47V16.9168H166.036ZM166.036 14.0552V14.8626H173.47V14.0552H166.036ZM169.254 11.7041V17.5462H170.121V11.7041H169.254ZM165.609 11.3479V18.2467H166.464V12.1553H173.019V18.2467H173.909V11.3479H165.609ZM164.457 8.68811V9.5193H175.002V8.68811H164.457ZM167.212 7.33447V10.8729H168.091V7.33447H167.212ZM171.332 7.33447V10.8729H172.211V7.33447H171.332Z" fill="#F6BC54"/>
<path fill-rule="evenodd" clip-rule="evenodd" d="M78.5947 47.558C75.4775 49.7381 73.625 52.6917 73.625 55.8876C73.625 59.0835 75.4775 62.0372 78.5947 64.2173C81.7119 66.3956 86.0463 67.7617 90.8616 67.7617H213.138C217.954 67.7617 222.288 66.3956 225.405 64.2173C228.523 62.0372 230.375 59.0835 230.375 55.8876C230.375 52.6917 228.523 49.7381 225.405 47.558C222.288 45.3797 217.954 44.0136 213.138 44.0136H90.8616C86.0463 44.0136 81.7119 45.3797 78.5947 47.558ZM77.9119 46.5849C81.2547 44.2511 85.8325 42.8262 90.8616 42.8262H213.138C218.167 42.8262 222.745 44.2511 226.088 46.5849C229.425 48.9176 231.562 52.1978 231.562 55.8876C231.562 59.5775 229.425 62.8577 226.088 65.1904C222.745 67.5242 218.167 68.9491 213.138 68.9491H90.8616C85.8325 68.9491 81.2547 67.5242 77.9119 65.1904C74.575 62.8577 72.4375 59.5775 72.4375 55.8876C72.4375 52.1978 74.575 48.9176 77.9119 46.5849Z" fill="#F6BC54"/>
<path d="M101.401 52.2779V58.2386C101.401 59.7229 102.006 60.0672 103.942 60.0672C104.381 60.0672 107.92 60.0672 108.407 60.0672C110.366 60.0672 110.746 59.426 110.984 57.2293C110.711 57.1818 110.319 57.0275 110.069 56.8612C109.915 58.7848 109.713 59.1885 108.407 59.1885C107.611 59.1885 104.512 59.1885 103.883 59.1885C102.576 59.1885 102.315 59.0104 102.315 58.2624V52.2779H101.401ZM101.899 54.2252V55.1158H108.906V54.2252H101.899ZM100.783 50.2236V51.1023H108.549V55.6976H109.464V50.2236H100.783Z" fill="#F6BC54"/>
<path d="M116.411 50.1522V50.9478H122.811V50.1522H116.411ZM116.731 56.2436V57.0392H122.514V56.2436H116.731ZM115.971 59.2715V60.0671H122.966V59.2715H115.971ZM119.142 56.5524V59.7584H120.033V56.5524H119.142ZM117.551 51.3159C117.277 51.8859 116.767 52.7764 116.292 53.5007C116.909 54.3319 117.456 55.2462 117.705 55.8637L118.441 55.5549C118.192 55.0206 117.669 54.1776 117.159 53.4889C117.539 52.8833 118.014 52.1234 118.323 51.5178L117.551 51.3159ZM119.605 51.3159C119.332 51.8859 118.797 52.7764 118.287 53.5007C118.952 54.3201 119.534 55.2462 119.819 55.8637L120.531 55.5431C120.27 55.0087 119.712 54.1776 119.166 53.4889C119.569 52.8833 120.056 52.1234 120.389 51.5178L119.605 51.3159ZM121.659 51.3159C121.374 51.8859 120.816 52.7764 120.306 53.5007C120.994 54.3201 121.624 55.2462 121.921 55.8637L122.645 55.5193C122.348 54.985 121.754 54.1538 121.184 53.4889C121.6 52.8833 122.087 52.1352 122.431 51.5296L121.659 51.3159ZM113.881 49.4873C113.573 50.271 113.014 51.4347 112.587 52.1233L113.193 52.3846C113.656 51.7315 114.214 50.6628 114.665 49.7842L113.881 49.4873ZM115.211 50.8409C114.558 52.0877 113.442 53.8569 112.551 54.9137L113.098 55.2225C113.988 54.1894 115.14 52.5033 115.959 51.1853L115.211 50.8409ZM111.981 51.9571C112.611 52.5627 113.323 53.4057 113.62 53.9757L114.131 53.3108C113.822 52.7645 113.098 51.969 112.456 51.3872L111.981 51.9571ZM114.748 53.5601C115.223 54.3438 115.686 55.4006 115.841 56.0655L116.541 55.7449C116.375 55.0919 115.888 54.0707 115.389 53.287L114.748 53.5601ZM111.886 54.7356L111.981 55.5312C113.062 55.46 114.487 55.3768 115.9 55.2819V54.5338C114.404 54.6169 112.919 54.6881 111.886 54.7356ZM115.057 56.4336C115.342 57.1223 115.591 58.0247 115.663 58.6066L116.351 58.3928C116.268 57.811 116.019 56.9205 115.71 56.2318L115.057 56.4336ZM112.599 56.2674C112.468 57.3004 112.243 58.3691 111.863 59.0934C112.041 59.1765 112.397 59.3309 112.539 59.4259C112.919 58.6659 113.193 57.526 113.347 56.398L112.599 56.2674ZM113.858 55.08V60.3996H114.641V55.08H113.858Z" fill="#F6BC54"/>
<path d="M124.129 50.0573V50.8409H127.989V50.0573H124.129ZM123.868 53.8213V54.6288H128.404V53.8213H123.868ZM125.828 54.2132V59.3428C125.828 59.4853 125.78 59.5328 125.614 59.5328C125.448 59.5446 124.889 59.5446 124.284 59.5328C124.403 59.7702 124.533 60.1383 124.569 60.3758C125.388 60.3758 125.911 60.3639 126.243 60.2214C126.588 60.0908 126.683 59.8296 126.683 59.3546V54.2132H125.828ZM127.716 50.0573V50.2354C127.348 50.9122 126.599 51.874 125.946 52.4321C126.101 52.5627 126.338 52.8002 126.469 52.9545C127.217 52.3252 128.072 51.304 128.642 50.3897L128.072 50.0098L127.906 50.0573H127.716ZM128.155 53.8213V53.9519C127.918 54.7713 127.573 55.7687 127.288 56.3743L127.977 56.5524C128.286 55.8993 128.666 54.8663 128.974 53.9401L128.416 53.7857L128.286 53.8213H128.155ZM124.462 52.1352C125.459 52.6695 126.635 53.5007 127.205 54.1182L127.716 53.4651C127.134 52.8595 125.934 52.064 124.937 51.5415L124.462 52.1352ZM128.725 50.0335V50.8053H134.758V50.0335H128.725ZM130.008 54.4507H133.487V55.6143H130.008V54.4507ZM130.008 56.2674H133.487V57.4429H130.008V56.2674ZM130.008 52.6339H133.487V53.7857H130.008V52.6339ZM129.176 51.9452V58.1435H134.354V51.9452H129.176ZM131.278 50.4135C131.207 50.9597 131.041 51.779 130.898 52.3133L131.682 52.4677C131.872 51.969 132.086 51.2209 132.288 50.5322L131.278 50.4135ZM130.364 58.3572C129.853 58.8797 128.784 59.4971 127.834 59.8415C128.013 59.9958 128.298 60.2689 128.428 60.4471C129.378 60.0908 130.494 59.4496 131.148 58.8203L130.364 58.3572ZM132.204 58.8678C132.941 59.319 133.855 59.9958 134.294 60.4352L135.007 59.9246C134.52 59.4734 133.606 58.8322 132.881 58.4166L132.204 58.8678Z" fill="#F6BC54"/>
<path d="M141.372 54.5814C142.037 55.4363 142.726 56.6119 142.987 57.36L143.771 56.9444C143.486 56.1844 142.773 55.0445 142.096 54.2133L141.372 54.5814ZM141.443 51.6248V52.4678H145.955V51.6248H141.443ZM145.599 51.6248V51.8266C145.409 56.9562 145.207 58.9273 144.792 59.3548C144.673 59.5092 144.519 59.5329 144.281 59.5329C143.984 59.5329 143.248 59.5329 142.464 59.4617C142.619 59.711 142.726 60.091 142.749 60.3522C143.462 60.3997 144.186 60.4116 144.59 60.376C145.041 60.3285 145.302 60.2335 145.576 59.8891C146.062 59.2954 146.252 57.4431 146.454 52.0879C146.454 51.9691 146.454 51.6248 146.454 51.6248H145.599ZM141.882 49.4756C141.443 51.0548 140.683 52.6222 139.757 53.6196C139.982 53.7384 140.374 53.9996 140.552 54.1421C141.455 53.0615 142.274 51.3992 142.797 49.6774L141.882 49.4756ZM137.619 49.4875C137.311 50.2711 136.764 51.411 136.313 52.0997L136.931 52.361C137.394 51.7198 137.964 50.663 138.415 49.7843L137.619 49.4875ZM139.056 50.8411C138.403 52.0997 137.275 53.8808 136.361 54.9376L136.931 55.2345C137.833 54.2133 138.997 52.5035 139.828 51.1736L139.056 50.8411ZM135.743 51.981C136.384 52.551 137.132 53.3703 137.453 53.9284L137.928 53.2515C137.607 52.7291 136.859 51.9454 136.194 51.3873L135.743 51.981ZM138.676 53.5959C139.163 54.3796 139.638 55.4126 139.816 56.0776L140.529 55.7451C140.351 55.092 139.84 54.0708 139.341 53.3109L138.676 53.5959ZM135.719 54.7952L135.791 55.5907C136.919 55.5313 138.427 55.4482 139.935 55.3532V54.6289C138.367 54.7002 136.788 54.7595 135.719 54.7952ZM138.973 56.4338C139.306 57.17 139.626 58.1318 139.733 58.7492L140.457 58.4999C140.327 57.8824 139.994 56.9444 139.65 56.22L138.973 56.4338ZM136.372 56.2675C136.23 57.3125 135.992 58.3692 135.601 59.0936C135.791 59.1767 136.147 59.3429 136.301 59.4379C136.681 58.678 136.978 57.5262 137.144 56.41L136.372 56.2675ZM137.738 55.1395V60.4353H138.546V55.1395H137.738Z" fill="#F6BC54"/>
<path d="M152.665 53.5249V59.2363C152.665 59.45 152.582 59.5213 152.321 59.5331C152.048 59.545 151.133 59.545 150.148 59.5094C150.29 59.7706 150.456 60.1506 150.516 60.4118C151.715 60.4118 152.511 60.3999 152.974 60.2574C153.437 60.1268 153.591 59.8537 153.591 59.26V53.5249H152.665ZM148.343 50.4139V51.2807H156.916V50.4139H148.343ZM156.596 50.4139V50.6276C155.848 51.6132 154.28 52.9787 152.926 53.7267C153.116 53.8573 153.401 54.1542 153.532 54.3442C155.004 53.513 156.679 52.1118 157.736 50.8532L157.047 50.3545L156.833 50.4139H156.596Z" fill="#F6BC54"/>
<path d="M164.528 49.4756V50.7817H165.419V49.4756H164.528ZM162.082 51.5417V52.8122H162.866V51.5417H162.082ZM165.728 51.6129V53.9996H166.559V51.6129H165.728ZM159.909 50.3068V52.0641H160.716V51.0548H169.254V52.0641H170.098V50.3068H159.909ZM159.944 52.3372V52.9903H165.074V52.3372H159.944ZM165.989 52.3728V52.9903H169.991V52.3728H165.989ZM166.226 56.1488V56.6831H169.587V56.1488H166.226ZM166.226 57.2531V57.7874H169.539V57.2531H166.226ZM166.226 58.3455V58.8798H169.908V58.3455H166.226ZM160.788 56.7188V57.2768H164.184V56.7188H160.788ZM160.788 58.013V58.583H164.184V58.013H160.788ZM159.683 54.1183V54.7952H165.264V54.1183H159.683ZM160.704 53.0378C160.871 53.4296 161.025 53.9521 161.073 54.2727L161.833 54.1065C161.785 53.7859 161.607 53.2753 161.429 52.8953L160.704 53.0378ZM163.483 52.8716C163.376 53.2278 163.163 53.774 162.996 54.1183L163.685 54.3083C163.851 53.9758 164.053 53.5246 164.255 53.0734L163.483 52.8716ZM160.408 55.3651V60.3997H161.203V56.0063H164.148V55.3651H160.408ZM163.78 55.3651V59.5685C163.78 59.6873 163.744 59.7229 163.602 59.7348C163.471 59.7348 163.056 59.7348 162.581 59.7229C162.687 59.9129 162.794 60.186 162.83 60.376C163.483 60.3878 163.946 60.376 164.219 60.281C164.504 60.1622 164.587 59.9604 164.587 59.5567V55.3651H163.78ZM165.728 54.9851V55.5789H169.848V53.6315H165.728V54.2252H169.017V54.9851H165.728ZM165.728 55.1751V59.2242C165.728 60.1385 166.048 60.3522 167.129 60.3522C167.366 60.3522 169.041 60.3522 169.278 60.3522C170.121 60.3522 170.371 60.0672 170.466 59.0698C170.228 59.0223 169.908 58.9155 169.729 58.7848C169.694 59.521 169.611 59.6516 169.207 59.6516C168.851 59.6516 167.473 59.6516 167.2 59.6516C166.642 59.6516 166.559 59.5685 166.559 59.2242V55.1751H165.728Z" fill="#F6BC54"/>
<path d="M177.27 49.4756C176.866 51.2804 176.166 52.9903 175.168 54.059C175.358 54.1777 175.714 54.4389 175.857 54.5696C176.854 53.394 177.638 51.5892 178.078 49.6418L177.27 49.4756ZM181.367 51.4704V51.6842C181.117 56.8969 180.844 58.7849 180.452 59.2361C180.31 59.3904 180.191 59.4379 180.001 59.4379C179.776 59.4379 179.289 59.426 178.754 59.3785C178.897 59.616 178.98 59.996 179.004 60.2572C179.526 60.2928 180.049 60.3047 180.357 60.2572C180.726 60.2216 180.951 60.1147 181.189 59.7941C181.676 59.2123 181.925 57.3481 182.198 51.9335C182.21 51.8029 182.21 51.4704 182.21 51.4704H181.367ZM177.187 51.4704L176.807 52.3135H181.723V51.4704H177.187ZM178.386 51.7317C177.899 53.8096 176.759 56.1132 175.37 57.2056C175.607 57.3362 175.893 57.5499 176.071 57.7281C177.424 56.5525 178.552 54.1777 179.063 52.076L178.386 51.7317ZM180.084 51.8029C179.514 54.9614 178.196 58.1793 176.118 59.6635C176.379 59.7941 176.7 60.0197 176.878 60.2097C178.873 58.6067 180.203 55.3295 180.797 52.1354L180.084 51.8029ZM171.344 56.0657L171.582 56.9325C172.781 56.5525 174.384 56.0538 175.892 55.5789L175.774 54.7952C174.159 55.282 172.461 55.7807 171.344 56.0657ZM173.565 49.4875V60.3997H174.396V49.4875H173.565ZM172.092 50.1643C171.95 51.6248 171.712 53.1328 171.261 54.1421C171.451 54.2252 171.796 54.4271 171.938 54.5339C172.389 53.4771 172.686 51.8741 172.864 50.2949L172.092 50.1643ZM172.164 51.9098L172.021 52.7766H175.619V51.9098H172.164Z" fill="#F6BC54"/>
<path d="M183.956 51.1381V51.9455H193.515V51.1381H183.956ZM184.549 52.9074V53.6792H192.993V52.9074H184.549ZM183.481 54.6885V55.4959H193.99V54.6885H183.481ZM183.398 56.5883V57.3839H194.109V56.5883H183.398ZM188.254 51.5893V55.2703H189.169V51.5893H188.254ZM185.476 49.7845C185.903 50.2357 186.307 50.8888 186.461 51.34L187.292 50.96C187.102 50.5207 186.687 49.9032 186.248 49.4639L185.476 49.7845ZM191.057 49.4639C190.808 49.9151 190.368 50.58 190.012 50.9837L190.796 51.2569C191.14 50.865 191.591 50.2951 191.971 49.7489L191.057 49.4639ZM188.207 55.3415C187.946 57.7163 187.257 59.0344 183.243 59.6162C183.409 59.8062 183.623 60.1743 183.694 60.3999C187.958 59.7112 188.824 58.1201 189.145 55.3415H188.207ZM189.406 56.8258L188.587 56.992C189.383 59.07 190.998 60.0674 193.741 60.4236C193.848 60.1743 194.085 59.7943 194.287 59.6043C191.686 59.355 190.083 58.5357 189.406 56.8258Z" fill="#F6BC54"/>
<path d="M198.609 51.9573C197.933 52.8241 196.816 53.6553 195.748 54.1896C195.938 54.3558 196.258 54.712 196.389 54.8901C197.469 54.2608 198.681 53.2753 199.464 52.2304L198.609 51.9573ZM201.638 52.456C202.742 53.1447 204.072 54.1539 204.713 54.8426L205.378 54.2371C204.701 53.5603 203.336 52.5747 202.243 51.9454L201.638 52.456ZM200.628 54.0946C201.733 55.4364 203.823 56.9206 205.592 57.7518C205.734 57.5024 205.948 57.17 206.15 56.9562C204.321 56.2082 202.291 54.7952 201.02 53.2753H200.129C199.191 54.6289 197.22 56.2082 195.213 57.1225C195.391 57.3124 195.617 57.6449 195.724 57.8587C197.707 56.8969 199.654 55.377 200.628 54.0946ZM197.339 56.4219V60.4116H198.206V57.2175H203.015V60.3641H203.918V56.4219H197.339ZM197.754 59.2123V60.0079H203.49V59.2123H197.754ZM200.129 49.4756V51.0311H201.044V49.4756H200.129ZM195.653 50.5799V52.7409H196.531V51.3873H204.666V52.7409H205.568V50.5799H195.653Z" fill="#F6BC54"/>
<path fill-rule="evenodd" clip-rule="evenodd" d="M6.75093 89.7108C3.63375 91.8909 1.78125 94.8446 1.78125 98.0405C1.78125 101.236 3.63375 104.19 6.75093 106.37C9.86812 108.548 14.2025 109.915 19.0178 109.915H141.295C146.11 109.915 150.444 108.548 153.562 106.37C156.679 104.19 158.531 101.236 158.531 98.0405C158.531 94.8446 156.679 91.8909 153.562 89.7108C150.444 87.5325 146.11 86.1664 141.295 86.1664H19.0178C14.2025 86.1664 9.86812 87.5325 6.75093 89.7108ZM6.06811 88.7377C9.41092 86.4039 13.9888 84.979 19.0178 84.979H141.295C146.324 84.979 150.902 86.4039 154.244 88.7377C157.581 91.0704 159.719 94.3506 159.719 98.0405C159.719 101.73 157.581 105.011 154.244 107.343C150.902 109.677 146.324 111.102 141.295 111.102H19.0178C13.9888 111.102 9.41092 109.677 6.06811 107.343C2.73123 105.011 0.59375 101.73 0.59375 98.0405C0.59375 94.3506 2.73123 91.0704 6.06811 88.7377Z" fill="#F6BC54"/>
<path d="M33.2618 93.2316V94.0153H42.8093V93.2316H33.2618ZM33.8318 95.0602V95.8201H42.2156V95.0602H33.8318ZM34.9362 101.472V102.268H43.023V101.472H34.9362ZM32.7155 96.9006V97.6962H43.2606V96.9006H32.7155ZM36.0762 98.5986V99.3823H42.2393V98.5986H36.0762ZM37.5249 93.6234V97.4587H38.4393V93.6234H37.5249ZM38.475 98.9786V101.816H39.3774V98.9786H38.475ZM34.8768 91.9729C35.2568 92.4479 35.6487 93.0772 35.8031 93.5165L36.6106 93.1485C36.4324 92.7329 36.0406 92.1154 35.6487 91.6642L34.8768 91.9729ZM40.2562 91.6167C40.0662 92.0798 39.6862 92.7566 39.3893 93.1959L40.1374 93.4572C40.458 93.0535 40.85 92.4598 41.2062 91.8898L40.2562 91.6167ZM35.2449 97.2331C34.8293 99.2873 33.9387 100.95 32.5137 101.947C32.7393 102.09 33.1074 102.398 33.2618 102.565C34.6987 101.437 35.6843 99.6554 36.1712 97.3756L35.2449 97.2331Z" fill="#F6BC54"/>
<path d="M44.7568 92.4717V93.3741H54.9812V92.4717H44.7568ZM50.5756 95.927C51.9887 96.8888 53.7699 98.2781 54.6012 99.1924L55.3256 98.5156C54.4469 97.6013 52.63 96.2595 51.2406 95.3571L50.5756 95.927ZM50.35 92.7804C49.2456 95.0127 47.0368 97.2926 44.46 98.5868C44.6381 98.7768 44.9231 99.133 45.0656 99.3586C47.7493 97.9456 49.9699 95.5945 51.3237 93.1366L50.35 92.7804ZM49.3762 95.1552V102.541H50.3381V94.2053L49.3762 95.1552Z" fill="#F6BC54"/>
<path d="M58.7931 94.2527C59.6837 94.6921 60.7643 95.3927 61.2749 95.8914L61.9044 95.3095C61.37 94.8108 60.2775 94.1459 59.3869 93.7303L58.7931 94.2527ZM64.2794 92.6379V92.7804C62.985 95.1196 59.565 96.7225 56.5725 97.2806C56.7388 97.4706 56.9169 97.8387 57 98.0643C60.135 97.3756 63.65 95.7133 65.1937 92.9466L64.6118 92.5904L64.4575 92.6379H64.2794ZM60.3131 92.6379V93.3859H64.505V92.6379H60.3131ZM61.1919 91.6167C60.3725 92.6141 58.805 93.7303 56.6675 94.4783C56.8693 94.6327 57.1425 94.9296 57.2731 95.1433C59.4818 94.2646 61.0968 93.0891 62.1893 91.8304L61.1919 91.6167ZM60.3131 98.6105C61.2512 99.1211 62.3793 99.9167 62.9137 100.475L63.6144 99.9048C63.0444 99.3348 61.9044 98.5868 60.9663 98.0999L60.3131 98.6105ZM66.0131 96.7938V96.9244C64.7306 99.9167 61.1444 101.33 57.475 101.769C57.6175 101.971 57.7956 102.339 57.855 102.588C61.7381 102.018 65.4431 100.534 66.9393 97.0669L66.3575 96.7463L66.1912 96.7938H66.0131ZM62.1538 96.7938V97.5537H66.2506V96.7938H62.1538ZM63.1156 95.6776C62.1894 96.8057 60.3843 98.0406 57.8668 98.8242C58.0568 98.9905 58.3181 99.3111 58.425 99.5129C61.0256 98.5986 62.9018 97.3044 64.1012 95.9032L63.1156 95.6776Z" fill="#F6BC54"/>
<path d="M72.568 93.2317V94.0511H79.1231V93.2317H72.568ZM75.3587 91.6406V93.6236H76.2611V91.6406H75.3587ZM77.3418 94.7635C76.3206 96.509 74.4324 98.1476 72.5324 99.0738C72.7462 99.2519 72.9956 99.5369 73.1381 99.7506C75.1093 98.7176 76.9974 97.0077 78.1374 95.1078L77.3418 94.7635ZM78.1137 97.1621C76.9618 99.2519 74.753 100.938 72.188 101.829C72.4136 102.03 72.663 102.351 72.7937 102.565C75.418 101.555 77.6386 99.7744 78.933 97.5302L78.1137 97.1621ZM75.1805 93.778C74.7887 94.526 74.0643 95.5591 73.5062 96.2003L74.1949 96.509C74.7768 95.8797 75.4893 94.9416 76.0593 94.0985L75.1805 93.778ZM72.663 95.8678C73.5299 96.4615 74.5987 97.3402 75.1093 97.922L75.6912 97.257C75.1687 96.699 74.0762 95.8559 73.2093 95.2978L72.663 95.8678ZM75.9643 100.202C76.8549 100.914 77.9949 101.947 78.5293 102.589L79.2181 101.971C78.6481 101.33 77.4843 100.356 76.5937 99.6556L75.9643 100.202ZM68.6731 95.2266V95.939H72.0455V95.2266H68.6731ZM68.7205 92.0562V92.7687H71.9981V92.0562H68.7205ZM68.6731 96.8177V97.5302H72.0455V96.8177H68.6731ZM68.1387 93.6117V94.3479H72.3543V93.6117H68.1387ZM69.0649 98.4207V99.1569H71.2737V101.14H69.0649V101.888H72.0455V98.4207H69.0649ZM68.6612 98.4207V102.434H69.4212V98.4207H68.6612Z" fill="#F6BC54"/>
<path d="M87.2337 92.8871H89.2761V94.122H87.2337V92.8871ZM84.4668 92.8871H86.4618V94.122H84.4668V92.8871ZM81.7712 92.8871H83.7068V94.122H81.7712V92.8871ZM80.9399 92.1865V94.8344H90.143V92.1865H80.9399ZM82.5312 97.6248H88.5399V98.5035H82.5312V97.6248ZM82.5312 99.1091H88.5399V100.012H82.5312V99.1091ZM82.5312 96.1406H88.5399V97.0311H82.5312V96.1406ZM81.6405 95.5112V100.641H89.4662V95.5112H81.6405ZM86.4856 101.246C87.8393 101.674 89.1812 102.196 89.9649 102.576L90.903 102.101C90.0005 101.698 88.528 101.163 87.1861 100.771L86.4856 101.246ZM83.6949 100.748C82.828 101.223 81.3912 101.662 80.1443 101.923C80.3462 102.078 80.6668 102.41 80.8093 102.588C82.0087 102.268 83.5286 101.71 84.5024 101.116L83.6949 100.748Z" fill="#F6BC54"/>
<path d="M96.9475 92.2106V93.018H102.03V92.2106H96.9475ZM97.0187 94.0748V94.811H100.759V94.0748H97.0187ZM97.2918 95.8559V100.594H98.0399V95.8559H97.2918ZM97.7787 95.8559V96.604H99.7143V98.8719H97.7787V99.6318H100.439V95.8559H97.7787ZM101.602 92.2106V101.401C101.602 101.615 101.507 101.686 101.306 101.698C101.092 101.698 100.379 101.71 99.5481 101.686C99.6906 101.924 99.8449 102.327 99.9043 102.565C100.973 102.565 101.543 102.541 101.923 102.398C102.315 102.244 102.457 101.947 102.457 101.401V92.2106H101.602ZM94.335 93.6473V95.1197H95.095V93.6473H94.335ZM92.7081 94.7635V101.425H93.5156V94.7635H92.7081ZM93.1949 96.3784V97.0077H96.0212V96.3784H93.1949ZM91.9125 101.27L92.1737 102.102C93.2543 101.805 94.6793 101.413 96.0212 101.009L95.9262 100.273C94.4537 100.653 92.9337 101.033 91.9125 101.27ZM94.7624 99.3706C95.3799 100.214 95.9975 101.354 96.2231 102.09L96.9949 101.734C96.7456 100.997 96.1043 99.8812 95.475 99.05L94.7624 99.3706ZM93.2306 94.7635V95.4522H95.6887V97.9576H93.2306V98.6344H96.4962V94.7635H93.2306ZM94.0974 91.6406C93.6581 92.6143 92.8387 93.8492 91.6631 94.7516C91.8531 94.8704 92.1262 95.1316 92.2687 95.3097C93.5275 94.2767 94.3468 92.9943 94.8456 92.0681V91.8306H94.5725V91.6406H94.0974ZM94.3231 91.6406V92.2462H94.4893C95.2137 92.8161 96.0212 93.7661 96.4131 94.3598L96.9949 93.7067C96.5793 93.113 95.7005 92.2343 94.9643 91.6406H94.3231Z" fill="#F6BC54"/>
<path d="M105.783 91.6762V102.541H106.614V91.6762H105.783ZM103.871 95.6184V96.4615H108.561V95.6184H103.871ZM105.652 96.0578C105.272 97.447 104.441 99.2519 103.681 100.166C103.823 100.404 104.037 100.784 104.132 101.045C104.928 99.9643 105.771 97.9101 106.186 96.2953L105.652 96.0578ZM106.59 96.6159L106.151 96.984C106.543 97.4945 107.516 99.05 107.813 99.6912L108.407 98.9788C108.134 98.5869 106.923 96.9721 106.59 96.6159ZM103.954 92.5549C104.263 93.3861 104.536 94.4904 104.595 95.2028L105.296 95.0129C105.213 94.3004 104.939 93.2199 104.607 92.3887L103.954 92.5549ZM107.789 92.3412C107.623 93.1486 107.267 94.336 107.006 95.0485L107.576 95.2266C107.896 94.5616 108.264 93.4455 108.573 92.543L107.789 92.3412ZM112.397 91.6406V102.553H113.24V91.6406H112.397ZM108.538 99.1925L108.68 100.024L114.784 98.9194L114.641 98.1001L108.538 99.1925ZM109.428 93.0893C110.117 93.5167 110.936 94.1579 111.316 94.621L111.791 93.9323C111.399 93.493 110.58 92.8874 109.891 92.4837L109.428 93.0893ZM108.823 96.0815C109.535 96.4734 110.39 97.0789 110.806 97.5064L111.257 96.8058C110.829 96.3784 109.951 95.8203 109.238 95.4522L108.823 96.0815Z" fill="#F6BC54"/>
<path d="M123.975 92.8399H125.222V94.1223H123.975V92.8399ZM122.146 92.8399H123.346V94.1223H122.146V92.8399ZM120.353 92.8399H121.517V94.1223H120.353V92.8399ZM119.581 92.1631V94.7991H126.018V92.1631H119.581ZM120.377 94.7754C120.175 95.3216 119.748 96.1171 119.439 96.604L119.949 96.8652C120.282 96.4021 120.709 95.7015 121.066 95.0841L120.377 94.7754ZM121.481 95.844C121.006 96.7464 120.163 98.0289 119.51 98.7888L119.985 99.0619C120.662 98.3257 121.505 97.1264 122.134 96.1646L121.481 95.844ZM118.988 96.5683C119.474 97.0077 120.056 97.6489 120.306 98.0763L120.733 97.4708C120.472 97.0671 119.878 96.4734 119.391 96.034L118.988 96.5683ZM121.434 99.9287C121.659 100.511 121.861 101.27 121.933 101.745L122.526 101.52C122.467 101.069 122.229 100.332 121.992 99.7506L121.434 99.9287ZM121.232 97.9576C121.564 98.4682 121.885 99.1806 121.992 99.6318L122.538 99.3706C122.408 98.9313 122.075 98.2545 121.743 97.732L121.232 97.9576ZM118.952 98.6582L119.011 99.3825C119.902 99.335 120.983 99.2875 122.111 99.2163L122.123 98.5632C120.923 98.5988 119.783 98.6344 118.952 98.6582ZM120.365 98.8957V102.565H121.078V98.8957H120.365ZM119.284 99.7506C119.13 100.475 118.881 101.211 118.513 101.745C118.703 101.817 119.011 101.959 119.154 102.054C119.474 101.508 119.783 100.689 119.973 99.905L119.284 99.7506ZM123.417 94.8585C123.073 95.939 122.55 97.0552 121.933 97.8151C122.099 97.9339 122.384 98.207 122.502 98.3257C123.144 97.5064 123.761 96.2477 124.141 95.0485L123.417 94.8585ZM123.5 96.4377H123.334L122.788 97.0908V102.541H123.5V97.162H126.421V96.4377H123.5ZM125.115 94.9179C124.961 95.4522 124.652 96.2477 124.414 96.7346L124.984 96.9602C125.246 96.4971 125.554 95.7847 125.839 95.1672L125.115 94.9179ZM124.509 96.7346V101.698H125.186V96.7346H124.509ZM123.144 98.1001V98.765H126.303V98.1001H123.144ZM123.144 99.7031V100.368H126.326V99.7031H123.144ZM123.037 101.354V102.042H126.623V101.354H123.037ZM116.482 92.7924V93.5998H118.049V98.6226H116.482V99.4419H118.786V92.7924H116.482ZM116.042 92.7924V100.427H116.779V92.7924H116.042Z" fill="#F6BC54"/>
</svg>
