<svg width="259" height="242" viewBox="0 0 259 242" fill="none" xmlns="http://www.w3.org/2000/svg">
<path d="M239.377 184.816L250.955 186.597C254.874 181.853 257.575 176.224 258.822 170.199C250.361 177.127 237.489 173.446 227.223 177.228C224.034 178.432 221.155 180.337 218.797 182.803C216.446 185.27 214.677 188.234 213.62 191.477L207.961 197.562C213.085 199.585 218.584 200.473 224.082 200.165C229.586 199.858 234.953 198.362 239.816 195.781C242.536 194.308 245.053 192.499 247.321 190.396C243.266 187.915 239.377 184.816 239.377 184.816Z" fill="#F2F2F2"/>
<path d="M235.268 166.304L246.437 162.742C247.832 156.749 247.737 150.506 246.169 144.557C241.681 154.537 228.517 156.977 221.018 164.944C218.691 167.447 216.957 170.442 215.948 173.707C214.938 176.972 214.677 180.422 215.187 183.8L212.812 191.774C218.299 191.304 223.619 189.651 228.404 186.927C233.196 184.205 237.334 180.476 240.541 175.999C242.316 173.469 243.765 170.724 244.851 167.83C240.125 167.343 235.268 166.304 235.268 166.304Z" fill="#F2F2F2"/>
<path d="M258.888 201.29C258.888 201.411 258.84 201.526 258.757 201.611C258.674 201.697 258.555 201.746 258.436 201.747H1.30095C1.17982 201.747 1.06345 201.699 0.977945 201.614C0.891852 201.528 0.84375 201.412 0.84375 201.29C0.84375 201.231 0.855637 201.171 0.878794 201.116C0.90195 201.061 0.935789 201.011 0.977945 200.969C1.0207 200.927 1.07116 200.894 1.12638 200.872C1.1816 200.85 1.24098 200.838 1.30095 200.839H258.43C258.49 200.838 258.549 200.85 258.603 200.872C258.662 200.894 258.709 200.927 258.751 200.969C258.798 201.011 258.828 201.061 258.852 201.116C258.876 201.171 258.888 201.231 258.888 201.29Z" fill="#CCCCCC"/>
<path d="M107.392 181.918C152.74 181.918 189.502 145.159 189.502 99.8151C189.502 54.471 152.74 17.7119 107.392 17.7119C62.0445 17.7119 25.2825 54.471 25.2825 99.8151C25.2825 145.159 62.0445 181.918 107.392 181.918Z" fill="#E6E6E6"/>
<path d="M178.048 99.8148C178.06 110.837 175.489 121.708 170.538 131.556C165.586 141.405 158.4 149.956 149.548 156.525C148.955 156.971 148.361 157.398 147.767 157.82C135.928 166.05 121.853 170.462 107.434 170.462C93.014 170.462 78.9397 166.05 67.1003 157.82C66.5066 157.398 65.9128 156.971 65.3191 156.525C56.4758 149.951 49.2926 141.4 44.3436 131.555C39.3953 121.711 36.8179 110.845 36.8179 99.8267C36.8179 88.8082 39.3953 77.9422 44.3436 68.0975C49.2926 58.2527 56.4758 49.7022 65.3191 43.1281C65.9128 42.6846 66.5066 42.2512 67.1003 41.8279C78.9397 33.5974 93.014 29.1855 107.434 29.1855C121.853 29.1855 135.928 33.5974 147.767 41.8279C148.361 42.2494 148.955 42.6828 149.548 43.1281C158.397 49.6944 165.586 58.2426 170.532 68.0868C175.483 77.9304 178.054 88.7969 178.048 99.8148Z" fill="white"/>
<path d="M107.392 164.351C143.037 164.351 171.933 135.457 171.933 99.8153C171.933 64.1729 143.037 35.2798 107.392 35.2798C71.7476 35.2798 42.8516 64.1729 42.8516 99.8153C42.8516 135.457 71.7476 164.351 107.392 164.351Z" fill="#F6BC54"/>
<path opacity="0.2" d="M107.564 35.4585C106.586 35.4585 105.613 35.4822 104.643 35.5297C120.954 36.9647 136.11 44.5451 147.041 56.7356C157.972 68.9267 163.858 84.816 163.513 101.185C163.163 117.555 156.609 133.18 145.171 144.896C133.733 156.613 118.269 163.544 101.912 164.286C103.776 164.446 105.658 164.536 107.564 164.536C124.575 164.372 140.833 157.501 152.805 145.415C164.778 133.329 171.493 117.007 171.493 99.997C171.493 82.9868 164.778 66.6641 152.805 54.5787C140.833 42.4927 124.575 35.6212 107.564 35.4585Z" fill="black"/>
<path d="M107.588 30.6963C107.312 30.6957 107.038 30.7491 106.783 30.8548C106.528 30.9599 106.296 31.1149 106.1 31.3102C105.905 31.5055 105.751 31.7376 105.645 31.9929C105.54 32.2482 105.486 32.5219 105.486 32.798V41.9588C105.471 42.2438 105.514 42.5288 105.613 42.7965C105.712 43.0649 105.864 43.3095 106.06 43.5167C106.256 43.7239 106.493 43.889 106.755 44.0012C107.018 44.114 107.3 44.1722 107.585 44.1722C107.871 44.1722 108.153 44.114 108.415 44.0012C108.678 43.889 108.914 43.7239 109.11 43.5167C109.307 43.3095 109.459 43.0649 109.558 42.7965C109.656 42.5288 109.699 42.2438 109.684 41.9588V32.798C109.685 32.5225 109.631 32.2494 109.527 31.9941C109.422 31.7394 109.267 31.5073 109.072 31.3126C108.878 31.1172 108.646 30.9623 108.392 30.8566C108.137 30.7509 107.864 30.6963 107.588 30.6963Z" fill="white"/>
<path d="M149.531 43.0926C148.937 42.6473 148.343 42.2139 147.749 41.7924C147.385 41.7704 147.022 41.8434 146.694 42.0032C146.366 42.1635 146.086 42.4057 145.879 42.7067L140.719 50.2823C140.405 50.7431 140.285 51.31 140.389 51.858C140.491 52.4066 140.808 52.8917 141.269 53.2063C141.729 53.5216 142.296 53.6403 142.844 53.5376C143.393 53.4343 143.878 53.1179 144.193 52.6571L149.352 45.0815C149.547 44.7918 149.665 44.4575 149.696 44.1096C149.728 43.7623 149.671 43.4126 149.531 43.0926Z" fill="white"/>
<path d="M172.972 77.6283C172.758 77.1142 172.354 76.7045 171.844 76.489C171.333 76.2729 170.757 76.2687 170.241 76.4765L161.75 79.9022C161.234 80.1118 160.823 80.5173 160.606 81.0296C160.39 81.5426 160.386 82.1203 160.595 82.6362C160.804 83.1515 161.21 83.563 161.723 83.7797C162.237 83.9964 162.813 84.0005 163.329 83.7909L171.826 80.3475C172.337 80.1332 172.74 79.7288 172.954 79.2206C173.168 78.713 173.174 78.1413 172.972 77.6283Z" fill="white"/>
<path d="M74.0946 50.2945L68.9349 42.7189C68.7283 42.4173 68.4463 42.175 68.1173 42.0159C67.7884 41.8568 67.4233 41.7856 67.0587 41.8105C66.4649 42.2261 65.8712 42.6595 65.2774 43.1048C65.1433 43.4254 65.0916 43.7739 65.1266 44.1194C65.1622 44.4644 65.2834 44.7956 65.4793 45.0818L70.639 52.6575C70.9537 53.1182 71.4388 53.4346 71.9874 53.5379C72.536 53.6406 73.1025 53.5219 73.5632 53.2066C74.024 52.892 74.3404 52.4069 74.4438 51.8583C74.5465 51.3103 74.4271 50.7434 74.1125 50.2826L74.0946 50.2945Z" fill="white"/>
<path d="M53.0461 79.9024L44.5496 76.453C44.0354 76.2559 43.4642 76.2678 42.9595 76.4875C42.4543 76.7065 42.0552 77.115 41.848 77.6256C41.6414 78.1356 41.6426 78.7067 41.8528 79.2161C42.0624 79.7255 42.4638 80.1316 42.9702 80.3477L51.4668 83.7918C51.7221 83.8951 51.9952 83.9473 52.2713 83.9455C52.5468 83.9438 52.8193 83.8874 53.0729 83.7805C53.327 83.673 53.5574 83.5169 53.7509 83.321C53.9445 83.1245 54.0971 82.8923 54.201 82.6364C54.3049 82.3811 54.3571 82.108 54.3554 81.8325C54.3536 81.5571 54.2972 81.2846 54.1897 81.0305C54.0828 80.777 53.9267 80.5466 53.7302 80.353C53.5342 80.1595 53.3014 80.0063 53.0461 79.9024Z" fill="white"/>
<path d="M107.588 155.57C107.312 155.569 107.038 155.623 106.783 155.728C106.528 155.833 106.296 155.988 106.1 156.184C105.905 156.379 105.751 156.611 105.645 156.866C105.54 157.122 105.486 157.395 105.486 157.672V166.832C105.471 167.117 105.514 167.402 105.613 167.671C105.712 167.938 105.864 168.183 106.06 168.39C106.256 168.597 106.493 168.763 106.755 168.875C107.018 168.988 107.3 169.046 107.585 169.046C107.871 169.046 108.153 168.988 108.415 168.875C108.678 168.763 108.914 168.597 109.11 168.39C109.307 168.183 109.459 167.938 109.558 167.671C109.656 167.402 109.699 167.117 109.684 166.832V157.677C109.686 157.401 109.633 157.128 109.528 156.872C109.423 156.617 109.27 156.384 109.075 156.188C108.88 155.992 108.648 155.836 108.393 155.731C108.138 155.624 107.865 155.57 107.588 155.57Z" fill="white"/>
<path d="M149.329 154.543L144.169 146.991C143.854 146.531 143.369 146.214 142.821 146.111C142.273 146.008 141.706 146.127 141.245 146.442C140.785 146.757 140.468 147.242 140.365 147.79C140.262 148.339 140.381 148.906 140.696 149.366L145.855 156.941C146.062 157.242 146.343 157.483 146.671 157.642C146.999 157.802 147.362 157.873 147.726 157.85C148.319 157.429 148.913 157.001 149.507 156.555C149.65 156.232 149.709 155.879 149.677 155.527C149.646 155.174 149.526 154.836 149.329 154.543Z" fill="white"/>
<path d="M171.844 119.259L163.347 115.81C163.086 115.675 162.807 115.596 162.516 115.577C162.225 115.559 161.934 115.601 161.658 115.701C161.384 115.801 161.134 115.957 160.924 116.159C160.714 116.361 160.548 116.604 160.437 116.873C160.326 117.143 160.272 117.432 160.278 117.724C160.285 118.015 160.352 118.302 160.476 118.566C160.599 118.83 160.776 119.065 160.996 119.257C161.215 119.449 161.472 119.593 161.75 119.681L170.241 123.13C170.496 123.234 170.769 123.287 171.048 123.285C171.321 123.283 171.594 123.227 171.85 123.12C172.105 123.012 172.337 122.856 172.527 122.66C172.722 122.463 172.877 122.23 172.984 121.975C173.085 121.719 173.138 121.446 173.138 121.17C173.132 120.893 173.079 120.62 172.972 120.366C172.865 120.112 172.705 119.881 172.509 119.686C172.313 119.492 172.081 119.339 171.826 119.235L171.844 119.259Z" fill="white"/>
<path d="M73.5367 146.397C73.3087 146.242 73.0528 146.132 72.7832 146.076C72.5136 146.02 72.2352 146.017 71.9644 146.068C71.6937 146.12 71.4354 146.224 71.205 146.375C70.9746 146.526 70.7763 146.721 70.6214 146.949L65.4617 154.519C65.2652 154.806 65.1441 155.138 65.109 155.485C65.0734 155.831 65.1256 156.181 65.2598 156.502C65.8536 156.947 66.4473 157.375 67.0411 157.796C67.4056 157.82 67.7702 157.749 68.0985 157.589C68.4275 157.43 68.7095 157.188 68.9173 156.888L74.077 149.312C74.232 149.084 74.3406 148.828 74.3964 148.558C74.4522 148.288 74.4546 148.01 74.4029 147.739C74.3507 147.468 74.2462 147.21 74.0942 146.98C73.9428 146.75 73.7469 146.552 73.5189 146.397H73.5367Z" fill="white"/>
<path d="M54.1981 116.967C54.0978 116.709 53.9476 116.473 53.7552 116.274C53.5634 116.074 53.3342 115.914 53.0801 115.803C52.826 115.694 52.5529 115.634 52.2756 115.63C51.9989 115.626 51.724 115.677 51.4669 115.78L43 119.259C42.4935 119.475 42.0922 119.882 41.8826 120.39C41.6724 120.9 41.6712 121.471 41.8778 121.981C42.085 122.492 42.4835 122.9 42.9887 123.119C43.494 123.339 44.0652 123.351 44.5794 123.154L53.0759 119.704C53.586 119.487 53.9897 119.079 54.1999 118.566C54.4101 118.054 54.4095 117.479 54.1981 116.967Z" fill="white"/>
<path d="M110.313 98.77C110.507 99.9194 110.238 101.099 109.563 102.05C108.889 103 107.864 103.644 106.715 103.84L69.4455 110.181C68.2978 110.376 67.1192 110.107 66.1692 109.434C65.2192 108.76 64.5762 107.737 64.3808 106.589C64.1855 105.441 64.4544 104.263 65.1277 103.313C65.8017 102.363 66.8253 101.72 67.973 101.525L105.243 95.1841C106.39 94.9893 107.568 95.2577 108.519 95.9297C109.469 96.6018 110.114 97.623 110.313 98.77Z" fill="#3F3D56"/>
<path d="M149.542 140.062C149.004 140.598 148.275 140.899 147.515 140.899C146.755 140.899 146.026 140.598 145.487 140.062L105.367 100.284C105.1 100.019 104.888 99.7047 104.743 99.358C104.597 99.0112 104.521 98.639 104.52 98.2632C104.518 97.8874 104.591 97.5145 104.733 97.1666C104.875 96.8187 105.085 96.5016 105.35 96.2351C105.614 95.9679 105.929 95.7553 106.276 95.6099C106.623 95.4644 106.994 95.389 107.371 95.3872C107.747 95.3855 108.119 95.4579 108.467 95.6004C108.815 95.7429 109.132 95.9525 109.399 96.2172L149.525 135.995C149.794 136.26 150.008 136.576 150.155 136.924C150.301 137.273 150.377 137.647 150.379 138.025C150.381 138.403 150.308 138.777 150.164 139.127C150.02 139.477 149.809 139.794 149.542 140.062Z" fill="#3F3D56"/>
<path d="M107.392 104.778C110.134 104.778 112.356 102.556 112.356 99.8149C112.356 97.0738 110.134 94.8516 107.392 94.8516C104.651 94.8516 102.428 97.0738 102.428 99.8149C102.428 102.556 104.651 104.778 107.392 104.778Z" fill="#CCCCCC"/>
<path d="M73.1982 13.734C65.5744 25.709 53.9488 33.6646 39.6097 38.8833C39.3259 39.0958 39.0035 39.2508 38.6603 39.3386C38.3171 39.4265 37.9603 39.4461 37.6094 39.3956C37.2585 39.3458 36.9213 39.227 36.6167 39.0459C36.3115 38.8654 36.0455 38.6268 35.8335 38.343C28.0435 27.9472 29.807 13.0809 40.0848 5.13717C45.0616 1.29651 51.3607 -0.409795 57.5962 0.392891C63.8312 1.19558 69.4926 4.44194 73.3348 9.41777L73.5247 9.66713L73.7385 9.95804C74.1666 10.531 74.3501 11.2499 74.2486 11.9576C74.147 12.6653 73.7694 13.3041 73.1982 13.734Z" fill="#E6E6E6"/>
<path d="M141.266 9.66724C143.133 7.17606 145.473 5.07731 148.151 3.49034C150.83 1.90337 153.795 0.859649 156.877 0.418528C159.959 -0.0220001 163.098 0.1478 166.114 0.920208C169.13 1.69202 171.963 3.05042 174.456 4.91761L174.706 5.10758C184.983 13.0513 186.741 27.9177 178.957 38.3134C178.743 38.5966 178.476 38.8359 178.173 39.0164C177.87 39.1974 177.532 39.3162 177.182 39.3661C176.831 39.4165 176.475 39.3969 176.131 39.3091C175.786 39.2212 175.466 39.0662 175.181 38.8537C161.869 33.7597 150.95 24.9432 141.592 13.7044C141.308 13.4919 141.07 13.2259 140.889 12.9213C140.708 12.6162 140.589 12.2789 140.539 11.9281C140.489 11.5778 140.509 11.2204 140.596 10.8772C140.684 10.534 140.839 10.2117 141.052 9.92847L141.266 9.66724Z" fill="#E6E6E6"/>
<path d="M137.923 170.947C137.682 171.082 137.471 171.263 137.3 171.479C137.13 171.696 137.004 171.944 136.93 172.209C136.855 172.474 136.834 172.752 136.867 173.025C136.9 173.298 136.986 173.563 137.121 173.803L149.24 195.467C149.512 195.954 149.966 196.312 150.503 196.464C151.04 196.615 151.615 196.547 152.101 196.275C152.588 196.002 152.946 195.548 153.098 195.011C153.249 194.474 153.181 193.899 152.909 193.413L140.785 171.755C140.511 171.269 140.057 170.912 139.52 170.76C138.984 170.609 138.41 170.676 137.923 170.947Z" fill="#E6E6E6"/>
<path d="M74.0056 171.754L61.8812 193.412C61.6086 193.899 61.5409 194.474 61.6924 195.011C61.8438 195.547 62.2018 196.001 62.6887 196.274C63.1749 196.546 63.7503 196.614 64.287 196.463C64.8238 196.311 65.278 195.953 65.5505 195.467L77.669 173.802C77.9404 173.317 78.008 172.743 77.8566 172.207C77.7052 171.671 77.3472 171.218 76.8615 170.947C76.3758 170.675 75.8017 170.608 75.2661 170.759C74.7305 170.91 74.2769 171.268 74.0056 171.754Z" fill="#E6E6E6"/>
<path d="M151.698 201.012C155.282 201.012 158.187 198.106 158.187 194.523C158.187 190.939 155.282 188.034 151.698 188.034C148.113 188.034 145.208 190.939 145.208 194.523C145.208 198.106 148.113 201.012 151.698 201.012Z" fill="#E6E6E6"/>
<path d="M156.282 34.8939C159.866 34.8939 162.771 31.9889 162.771 28.4047C162.771 24.8211 159.866 21.9155 156.282 21.9155C152.698 21.9155 149.792 24.8211 149.792 28.4047C149.792 31.9889 152.698 34.8939 156.282 34.8939Z" fill="#E6E6E6"/>
<path d="M107.012 19.6175C110.596 19.6175 113.502 16.7119 113.502 13.1283C113.502 9.54414 110.596 6.63916 107.012 6.63916C103.428 6.63916 100.522 9.54414 100.522 13.1283C100.522 16.7119 103.428 19.6175 107.012 19.6175Z" fill="#E6E6E6"/>
<path d="M60.0407 34.1278C63.6246 34.1278 66.5304 31.2228 66.5304 27.6386C66.5304 24.055 63.6246 21.1494 60.0407 21.1494C56.4562 21.1494 53.551 24.055 53.551 27.6386C53.551 31.2228 56.4562 34.1278 60.0407 34.1278Z" fill="#E6E6E6"/>
<path d="M64.2385 201.012C67.8223 201.012 70.7281 198.106 70.7281 194.523C70.7281 190.939 67.8223 188.034 64.2385 188.034C60.654 188.034 57.7488 190.939 57.7488 194.523C57.7488 198.106 60.654 201.012 64.2385 201.012Z" fill="#E6E6E6"/>
<path d="M146.603 136.41C146.833 136.771 147.131 137.082 147.481 137.327C147.831 137.572 148.225 137.745 148.642 137.837C149.059 137.929 149.49 137.938 149.911 137.863C150.331 137.789 150.732 137.632 151.092 137.402C151.255 137.301 151.409 137.183 151.549 137.052L161.738 142.514L161.192 136.529L151.597 132.266C151.019 131.702 150.252 131.371 149.445 131.339C148.637 131.307 147.846 131.575 147.225 132.092C146.604 132.609 146.197 133.338 146.082 134.138C145.967 134.937 146.153 135.751 146.603 136.422V136.41Z" fill="#FFB7B7"/>
<path d="M154.031 138.501L158.027 132.991L177.259 142.081L201.193 137.592C203.33 137.191 205.533 137.653 207.332 138.878C209.125 140.102 210.36 141.989 210.764 144.123C210.853 144.617 210.901 145.118 210.901 145.619C210.901 147.792 210.04 149.877 208.508 151.416C206.976 152.956 204.892 153.824 202.719 153.83L175.288 153.884L154.031 138.501Z" fill="#3F3D56"/>
<path d="M147.874 233.677L143.836 231.742L149.388 214.863L155.349 217.713L147.874 233.677Z" fill="#FFB7B7"/>
<path d="M174.955 230.953L174.07 231.498C173.482 231.863 172.889 232.219 172.289 232.568L171.386 233.09L170.929 233.202L170.276 231.475L169.973 230.673L169.546 229.546L168.762 227.474L164.635 216.59L171.048 215.006L171.292 215.991L171.41 216.478L173.649 225.561L174.106 227.414V227.474L174.379 228.584L174.617 229.546L174.884 230.62L174.955 230.953Z" fill="#FFB7B7"/>
<path d="M213.204 192.706C212.795 193.359 212.385 194.006 211.963 194.653C211.174 195.841 210.378 197.028 209.588 198.216C209.107 198.659 208.579 199.045 208.015 199.367L207.938 199.409C207.522 199.639 207.077 199.819 206.62 199.943L206.115 200.068C205.521 200.21 204.927 200.329 204.334 200.436C203.283 200.626 202.244 200.757 201.21 200.84H200.961C196.704 201.064 192.441 200.722 188.273 199.825C186.141 199.421 183.962 198.94 181.712 198.435L179.491 197.943L179.313 197.907C178.25 197.669 177.164 197.438 176.047 197.212C174.646 196.927 173.203 196.648 171.701 196.381L171.808 198.495C171.897 200.12 172.236 201.721 172.812 203.244C173.453 205.12 173.963 206.605 172.889 209.692L172.372 211.188C172.639 211.93 172.734 212.725 172.645 213.508C172.55 214.293 172.283 215.045 171.85 215.706L171.743 215.866L176.047 226.755L176.327 227.461H166.827L160.194 214.162L159.88 213.527V213.492L160.562 187.927C160.562 187.701 160.562 187.476 160.622 187.25C160.744 186.225 161.07 185.234 161.58 184.335C162.088 183.438 162.771 182.65 163.591 182.019C164.374 181.407 165.265 180.957 166.227 180.695C167.183 180.433 168.18 180.365 169.166 180.494L171.434 180.784L176.071 181.378L179.337 181.806H179.402L189.039 183.052L189.727 180.232L189.858 180.185L193.913 178.701L207.938 173.559H207.973L208.9 173.221L209.006 173.399C209.042 173.452 209.072 173.506 209.101 173.559C210.016 175.193 210.758 176.915 211.322 178.701C212.266 181.622 213.044 184.595 213.65 187.606C213.673 187.737 213.697 187.855 213.721 187.962C213.721 187.994 213.721 188.025 213.721 188.057C214 189.624 213.822 191.238 213.204 192.706Z" fill="#2F2E41"/>
<path d="M213.798 183.296C213.751 183.106 213.697 182.907 213.638 182.702C213.163 181.288 212.617 179.901 211.993 178.546C211.293 177.002 210.455 175.346 209.452 173.559C208.971 172.692 208.449 171.777 207.89 170.857C207.611 170.388 207.297 169.913 207.024 169.427C207.012 169.402 207 169.38 206.982 169.361L206.899 169.218L193.017 171.071L187.851 171.765L187.543 174.342L187.465 174.978L187.258 176.711L186.984 179.009L179.313 178.018L171.41 176.99L167.165 176.444C166.179 176.315 165.182 176.384 164.226 176.645C163.264 176.908 162.374 177.358 161.589 177.97C160.772 178.601 160.088 179.388 159.579 180.286C159.069 181.184 158.743 182.175 158.62 183.201C158.591 183.411 158.573 183.623 158.568 183.836L154.56 193.335C152.166 199.011 150.642 205.016 150.035 211.146L147.067 220.539L147.488 220.574L153.711 221.167L155.355 221.322L158.971 216.038C159.387 215.445 159.779 214.815 160.159 214.18C160.758 213.14 161.293 212.066 161.762 210.962L169.588 192.332C170.181 192.439 170.775 192.534 171.369 192.629C174.112 193.076 176.748 193.44 179.272 193.72C187.483 194.635 194.59 194.707 200.92 193.929C202.701 193.715 204.417 193.43 206.074 193.074C206.667 192.949 207.261 192.813 207.855 192.664L208.27 192.563C209.494 192.245 210.622 191.626 211.548 190.761C212.474 189.896 213.169 188.813 213.567 187.612C214.054 186.224 214.131 184.727 213.798 183.296Z" fill="#2F2E41"/>
<path d="M149.169 230.916L144.799 228.821L144.11 228.494L143.017 231.184L135.376 232.864C134.997 232.946 134.654 233.146 134.398 233.437C134.142 233.728 133.986 234.093 133.952 234.479C133.919 234.865 134.011 235.252 134.214 235.582C134.416 235.912 134.72 236.168 135.079 236.313L142.548 239.359L144.923 237.228L144.329 240.089L147.144 241.241L150.225 231.427L149.169 230.916Z" fill="#2F2E41"/>
<path d="M176.024 226.779L176.303 227.486H176.024V226.779Z" fill="#2F2E41"/>
<path d="M174.504 227.634L169.926 229.225L169.208 229.468L170.318 232.152L166.073 238.724C165.859 239.048 165.758 239.431 165.776 239.818C165.799 240.205 165.948 240.575 166.191 240.873C166.441 241.171 166.773 241.382 167.153 241.475C167.527 241.568 167.925 241.538 168.281 241.39L175.733 238.302L175.917 235.114L177.52 237.56L180.322 236.373L175.614 227.236L174.504 227.634Z" fill="#2F2E41"/>
<path d="M212.652 187.595C212.379 187.594 212.118 187.529 211.875 187.405L187.709 174.777L187.43 173.631L186.901 170.015V169.98L189.199 159.388C189.158 159.299 189.069 159.15 188.968 158.978C187.94 157.239 184.811 151.949 190.779 144.664L201.24 132.469L210.218 132.083L210.325 132.214C212.724 135.228 214.345 138.788 215.039 142.577C215.728 146.367 215.479 150.269 214.297 153.938L213.365 170.823L214.368 174.23C214.95 176.235 214.855 178.378 214.089 180.322L214.321 185.843C214.333 186.067 214.303 186.291 214.226 186.502C214.155 186.714 214.036 186.908 213.887 187.074C213.733 187.24 213.549 187.374 213.347 187.468C213.145 187.563 212.926 187.616 212.7 187.624L212.652 187.595Z" fill="#3F3D56"/>
<path d="M191.693 201.522C192.435 201.082 192.975 200.366 193.189 199.53C193.403 198.694 193.278 197.807 192.839 197.064C192.744 196.9 192.631 196.745 192.506 196.601L198.313 186.608L192.316 186.947L187.721 196.381C187.151 196.942 186.8 197.693 186.747 198.492C186.693 199.291 186.931 200.082 187.424 200.716C187.911 201.349 188.617 201.782 189.407 201.93C190.191 202.079 191.004 201.934 191.693 201.522Z" fill="#FFB7B7"/>
<path d="M194.038 194.172L188.694 190.017L198.45 171.113L194.792 147.044C194.632 145.979 194.679 144.893 194.935 143.848C195.196 142.802 195.659 141.818 196.294 140.951C196.936 140.083 197.737 139.351 198.657 138.794C199.578 138.237 200.605 137.867 201.668 137.705C202.167 137.628 202.665 137.599 203.17 137.616C205.343 137.691 207.397 138.624 208.882 140.211C210.372 141.798 211.168 143.91 211.097 146.083L210.194 173.494L194.038 194.172Z" fill="#3F3D56"/>
<path d="M195.493 127.398V118.493C195.564 115.381 196.846 112.42 199.073 110.244C201.3 108.067 204.286 106.849 207.403 106.849C210.515 106.849 213.501 108.067 215.728 110.244C217.954 112.42 219.237 115.381 219.308 118.493C221.404 122.862 220.092 124.94 219.308 127.398C219.308 127.823 219.136 128.23 218.839 128.53C218.536 128.83 218.132 129 217.705 129.001H197.09C196.668 128.998 196.259 128.828 195.962 128.528C195.665 128.228 195.493 127.822 195.493 127.398Z" fill="#2F2E41"/>
<path d="M212.314 120.987C213.103 116.128 209.802 111.551 204.945 110.762C200.088 109.974 195.511 113.273 194.721 118.131C193.931 122.989 197.232 127.567 202.089 128.355C206.946 129.144 211.524 125.845 212.314 120.987Z" fill="#FFB7B7"/>
<path d="M212.813 121.847L212.569 121.805L208.413 121.063L208.288 117.922L206.608 120.737C202.778 122.007 199.192 121.289 195.819 119.704C194.709 119.176 193.628 118.581 192.589 117.922C192.874 116.185 193.539 114.532 194.549 113.086C195.552 111.64 196.864 110.436 198.396 109.563L198.77 109.361C198.984 109.26 199.21 109.159 199.429 109.07C201.163 108.395 203.045 108.225 204.874 108.579C206.697 108.933 208.383 109.797 209.737 111.071C211.108 112.468 212.106 114.186 212.646 116.068C213.181 117.95 213.24 119.937 212.813 121.847Z" fill="#2F2E41"/>
</svg>
