<svg width="35" height="35" viewBox="0 0 35 35" fill="none" xmlns="http://www.w3.org/2000/svg">
<path d="M34.3051 4.3083C34.5248 4.52738 34.6435 4.82423 34.6435 5.13355C34.6435 5.44286 34.5248 5.73972 34.3051 5.95879L31.8648 8.39951L27.192 3.7241L29.6263 1.28338C29.846 1.06431 30.1429 0.941406 30.4576 0.941406C30.7663 0.941406 31.0632 1.06431 31.2828 1.28338L34.3051 4.30593V4.3083ZM30.2141 10.05L25.5354 5.37459L9.61097 21.3036C9.48034 21.4325 9.38536 21.5892 9.32598 21.762L7.44384 27.4051C7.40821 27.5078 7.4082 27.6183 7.43195 27.7239C7.4557 27.829 7.50915 27.9258 7.58633 28.0024C7.66352 28.079 7.7585 28.133 7.86538 28.1579C7.97225 28.1829 8.07915 28.1781 8.18603 28.1437L13.8267 26.2617C13.9988 26.2053 14.1591 26.1091 14.2838 25.9814L30.2141 10.0524V10.05Z" fill="#6A5F4B"/>
<path fill-rule="evenodd" clip-rule="evenodd" d="M0.401855 31.3327C0.401855 32.263 0.770042 33.1548 1.4291 33.8126C2.08817 34.4698 2.97875 34.8391 3.905 34.8391H29.6263C30.5526 34.8391 31.4431 34.4698 32.1022 33.8126C32.7613 33.1548 33.1295 32.263 33.1295 31.3327V17.3065C33.1295 16.9965 33.0107 16.6991 32.791 16.48C32.5713 16.2609 32.2744 16.1375 31.9597 16.1375C31.651 16.1375 31.3541 16.2609 31.1344 16.48C30.9147 16.6991 30.79 16.9965 30.79 17.3065V31.3327C30.79 31.6426 30.6713 31.94 30.4516 32.1591C30.2319 32.3788 29.9351 32.5017 29.6263 32.5017H3.905C3.59625 32.5017 3.29936 32.3788 3.07968 32.1591C2.85999 31.94 2.74127 31.6426 2.74127 31.3327V5.61822C2.74127 5.30831 2.85999 5.01086 3.07968 4.79179C3.29936 4.57212 3.59625 4.44922 3.905 4.44922H19.105C19.4137 4.44922 19.7106 4.32633 19.9303 4.10666C20.15 3.88758 20.2747 3.59014 20.2747 3.28023C20.2747 2.97031 20.15 2.67287 19.9303 2.45379C19.7106 2.23472 19.4137 2.11182 19.105 2.11182H3.905C2.97875 2.11182 2.08817 2.4811 1.4291 3.13833C0.770042 3.79615 0.401855 4.68789 0.401855 5.61822V31.3327Z" fill="#F6BC54"/>
</svg>
