<svg width="303" height="320" viewBox="0 0 303 320" fill="none" xmlns="http://www.w3.org/2000/svg">
<path fill-rule="evenodd" clip-rule="evenodd" d="M36.05 53.3V75.95H71.6V53.3H36.05ZM26.45 45.65H128.6V83.6H26.45V45.65ZM130.6 46.6931C133.78 47.9982 136.909 49.1865 139.944 50.2395L141.504 50.7805L142.331 49.3521C143.982 46.5003 146.419 42.6594 148.614 40.4642L150.99 38.0885L147.769 37.1326C124.758 30.3035 98.9611 16.6429 82.2885 0.560538L81.7074 0H69.3291L68.7304 0.699708C56.595 14.882 31.608 30.0241 6.30422 38.6571L3.47949 39.6209L5.44487 41.867C7.42258 44.1272 9.88881 47.8922 11.1825 50.3358L12.0043 51.8882L13.6498 51.2736C17.2567 49.9264 20.8686 48.4539 24.45 46.8784V85.6H130.6V46.6931ZM130.6 44.5296C134.005 45.9433 137.356 47.2246 140.6 48.35C141.914 46.0798 143.8 43.0482 145.726 40.6956C146.217 40.0948 146.712 39.5382 147.2 39.05C146.49 38.8393 145.777 38.6221 145.062 38.3987C122.364 31.3047 97.3324 17.8507 80.9 2H70.25C58.1297 16.1647 33.7835 31.0402 8.97522 39.8451C8.30042 40.0846 7.62527 40.3196 6.95002 40.55C7.38356 41.0455 7.83628 41.6049 8.29366 42.2031C10.0518 44.5028 11.8787 47.3764 12.95 49.4C16.7943 47.9642 20.6422 46.3853 24.45 44.6916C25.118 44.3945 25.7847 44.0939 26.45 43.7899C26.5519 43.7433 26.6537 43.6967 26.7554 43.65C34.5167 40.0887 42.0731 36.0695 49.05 31.8342C49.7222 31.4262 50.389 31.0162 51.05 30.6044V37.4H103.4V30.9508C104.063 31.3406 104.73 31.7276 105.4 32.1116C112.923 36.4243 120.828 40.3586 128.514 43.65C128.543 43.6623 128.571 43.6745 128.6 43.6868C129.268 43.9727 129.935 44.2537 130.6 44.5296ZM123.557 43.65H31.452C37.5395 40.7138 43.4665 37.515 49.05 34.1697V39.4H105.4V34.4134C111.335 37.775 117.482 40.8948 123.557 43.65ZM55.9491 27.45C54.9426 28.1201 53.9194 28.7871 52.8807 29.45H100.886C99.7982 28.7902 98.7214 28.1232 97.6575 27.45C89.4531 22.2581 82.0197 16.6934 76.25 11.15C76.25 11.1501 76.2501 11.1499 76.25 11.15C71.0337 16.4835 64.031 22.0691 55.9491 27.45ZM76.2917 13.9337C71.7174 18.3922 65.9964 22.9791 59.5143 27.45H93.9648C87.3391 23.104 81.286 18.5281 76.2917 13.9337ZM81.2 53.3V75.95H118.4V53.3H81.2ZM96.7693 55.3H83.2V73.95H88.2586L87.7323 73.7713L88.9041 71.6744C91.4636 67.0942 94.8559 60.2291 96.7693 55.3ZM98.6 75.35C98.8962 74.9058 99.1996 74.4382 99.5093 73.95C102.048 69.9486 105.009 64.5605 107.838 59.2948C108.161 58.6942 108.482 58.0952 108.8 57.5L99.2001 54.5C99.1086 54.7596 99.0114 55.0265 98.9093 55.3C97.2267 59.8098 94.1786 66.1216 91.6255 70.8691C91.2904 71.4922 90.9639 72.0884 90.65 72.65L98.6 75.35ZM108.465 55.3L111.704 56.312L110.564 58.4433C107.704 63.7899 104.596 69.5263 101.868 73.95H116.4V55.3H108.465ZM69.6 55.3H55.9056C59.5285 60.5119 62.7659 66.9854 64.209 71.6035L64.7796 73.4293L63.3414 73.95H69.6V55.3ZM62.3 72.2C60.819 67.4607 57.2907 60.5279 53.4478 55.3C53.3986 55.2331 53.3493 55.1664 53.3 55.1L45.2 57.8C45.5863 58.3562 45.9694 58.9331 46.3471 59.5258C49.1751 63.9626 51.7052 69.2831 53.0436 73.4244C53.1009 73.6018 53.1561 73.7771 53.2089 73.95C53.3577 74.4363 53.4886 74.9041 53.6 75.35L62.3 72.2ZM51.1117 73.95C49.6586 69.4933 46.7254 63.5029 43.5573 58.9408L42.0339 56.7472L46.3755 55.3H38.05V73.95H51.1117ZM33.3 88.8H122.05V141.85H106.65V137.35H48.4V142H33.3V88.8ZM46.4 135.35H108.65V139.85H120.05V90.8H35.3V140H46.4V135.35ZM108.65 117.05H46.4V127.25H108.65V117.05ZM106.65 125.25V119.05H48.4V125.25H106.65ZM108.65 98.75H46.4V108.8H108.65V98.75ZM106.65 106.8V100.75H48.4V106.8H106.65ZM178.35 5.85H276.7V43.75H178.35V5.85ZM171.9 48.45H282.7V116.95H260.921C274.034 121.292 288.037 126.533 297.079 130.358L300.106 131.638L286.847 142.653L285.695 142.108C274.698 136.907 254.397 129.143 238.589 124.52L234.765 123.401L243.322 116.95H209.464L216.782 121.759L214.095 123.406C201.86 130.899 182.149 138.162 166.59 142.089L165.352 142.401L164.548 141.411C162.708 139.147 159.063 135.639 156.42 133.436L153.351 130.88L157.237 129.954C169.646 127 184.399 121.906 194.552 116.95H171.9V48.45ZM202.318 114.95C201.294 115.607 200.155 116.275 198.919 116.95C189.226 122.239 173.543 127.901 160.09 131.312C159.285 131.516 158.488 131.712 157.7 131.9C158.279 132.382 158.906 132.927 159.553 133.508C161.925 135.639 164.568 138.265 166.1 140.15C180.753 136.451 199.05 129.784 211.136 122.835C211.793 122.458 212.431 122.079 213.05 121.7L202.778 114.95H280.7V50.45H173.9V114.95H202.318ZM239.15 122.6C239.933 122.829 240.728 123.066 241.531 123.31C257.038 128.012 275.997 135.309 286.55 140.3L296.3 132.2C295.632 131.918 294.937 131.627 294.217 131.33C283.769 127.018 268.064 121.259 254.43 116.95C252.54 116.353 250.69 115.784 248.9 115.25L239.15 122.6ZM260.85 19H193.6V30.45H260.85V19ZM274.7 41.75V7.85H180.35V41.75H274.7ZM267.15 79.3H187.15V85.95H267.15V79.3ZM267.15 97.9H187.15V104.7H267.15V97.9ZM267.15 60.85H187.15V67.35H267.15V60.85ZM191.6 17V32.45H262.85V17H191.6ZM185.15 77.3V87.95H269.15V77.3H185.15ZM185.15 95.9V106.7H269.15V95.9H185.15ZM185.15 58.85V69.35H269.15V58.85H185.15Z" fill="#F6BC54"/>
<path fill-rule="evenodd" clip-rule="evenodd" d="M54.5038 216.85C53.6225 217.867 52.7251 218.867 51.8129 219.85H103.009C102.078 218.866 101.162 217.865 100.258 216.85C95.7569 211.789 91.6008 206.353 87.859 200.632C87.8384 200.6 87.8178 200.569 87.7972 200.537C84.412 195.351 81.3671 189.931 78.7138 184.341C78.2821 183.432 77.8609 182.518 77.4502 181.6L86.9002 178.45C89.389 183.945 92.4071 189.335 95.8705 194.511C96.4269 195.343 96.9947 196.169 97.5737 196.989C98.3451 196.38 99.1288 195.753 99.9189 195.11C106.146 190.044 112.777 184.05 117.05 179.35L125.6 185.35C124.869 186.039 124.116 186.734 123.345 187.432C117.737 192.514 111.166 197.786 105.247 202.113C104.42 202.717 103.605 203.303 102.807 203.868C103.442 204.644 104.087 205.413 104.742 206.174C106.724 208.48 108.795 210.716 110.946 212.87C111.662 213.587 112.387 214.296 113.121 214.995C113.922 214.406 114.735 213.796 115.555 213.169C122.195 208.097 129.284 201.943 133.85 197.05L142.25 203.05C141.521 203.738 140.768 204.431 139.995 205.126C134.596 209.982 128.23 214.949 122.318 219.08C121.447 219.689 120.585 220.279 119.738 220.849C120.55 221.514 121.369 222.167 122.196 222.808C129.097 228.159 136.53 232.651 144.265 235.987C145.288 236.429 146.317 236.85 147.35 237.25C146.583 237.889 145.78 238.674 144.981 239.538C142.969 241.717 140.989 244.402 139.7 246.55C128.195 241.35 117.366 233.812 107.75 224.62C106.737 223.651 105.736 222.664 104.75 221.659V229.6H49.1002V222.678C48.1145 223.673 47.1139 224.649 46.1002 225.605C35.7739 235.341 24.0744 243.033 12.6502 248.35C11.6189 246.7 9.87865 244.341 8.16055 242.394C7.37963 241.509 6.60329 240.709 5.90019 240.1C6.88926 239.683 7.88285 239.242 8.87942 238.779C17.3366 234.846 26.0076 229.275 33.9411 222.555C34.6419 221.961 35.337 221.358 36.0257 220.747C36.0866 220.693 36.1475 220.639 36.2084 220.585C36.1276 220.501 36.046 220.416 35.9636 220.331C35.3741 219.725 34.7432 219.101 34.0777 218.465C29.9516 214.524 24.4913 210.129 19.2779 206.654C18.4093 206.075 17.5477 205.522 16.7002 205L22.7002 198.85C28.9208 202.371 35.9679 207.362 40.8235 211.953C41.5869 212.675 42.2961 213.387 42.9394 214.082C43.6319 213.356 44.3141 212.621 44.9851 211.877C49.3828 207.006 53.3021 201.772 56.505 196.3C57.0858 195.308 57.6431 194.307 58.1753 193.3H20.7502V183.85H63.5002L65.6002 183.25L72.8002 187C68.4647 198.099 62.0798 208.106 54.5038 216.85ZM68.1502 181.196L75.7895 185.174C75.4227 184.394 75.0634 183.611 74.7117 182.825L73.359 179.801L88.5171 174.749L89.6329 177.212C92.0207 182.484 94.9092 187.656 98.2183 192.626C104.292 187.672 110.72 181.854 114.83 177.332L116.609 175.375L130.337 185.009L127.658 187.533C121.567 193.273 113.97 199.443 107.184 204.413C109.162 206.704 111.23 208.923 113.377 211.058C120 206.024 127.138 199.844 131.657 195.003L133.453 193.079L146.962 202.729L144.309 205.232C138.588 210.629 131.447 216.31 124.784 221.014C132.17 226.639 140.153 231.246 148.434 234.453L153.185 236.293L149.271 239.555C146.909 241.523 143.963 245.276 142.273 248.094L140.898 250.384L138.465 249.284C132.682 246.67 127.074 243.487 121.7 239.817V283.3H113.659L113.423 283.762C110.582 289.339 107.503 295.098 104.599 300.1H145.4V315.55H8.75019V300.1H48.8549C47.0485 295.013 44.3174 288.953 41.4432 284.269L40.8486 283.3H32.3002V240.553C26.2502 244.699 20.0402 248.22 13.916 251.07L11.5117 252.189L10.1062 249.94C8.69013 247.674 5.87376 244.047 3.9354 242.367L0.291992 239.209L4.73434 237.336C13.8015 233.512 23.2424 227.654 31.7992 220.438C27.1861 216.063 20.8323 211.065 15.1279 207.555L11.9339 205.589L20.9968 196.3H17.7502V180.85H63.08L65.9256 180.037L67.4866 180.85H68.1502V181.196ZM24.2852 196.3H53.0058C50.1149 200.997 46.6778 205.511 42.8612 209.752C37.7658 204.939 30.5548 199.86 24.2852 196.3ZM34.6573 238.9H120.377C115.994 235.819 111.773 232.413 107.75 228.729V232.6H46.1002V229.686C42.4133 233.012 38.5762 236.088 34.6573 238.9ZM52.716 280.3L44.0002 282.7C44.1215 282.898 44.2426 283.098 44.3634 283.3C44.7652 283.973 45.1635 284.669 45.5562 285.383C48.1327 290.068 50.4728 295.519 52.0308 300.1C52.1832 300.548 52.3282 300.988 52.4651 301.418C52.6498 301.998 52.8199 302.56 52.9743 303.1H11.7502V312.55H142.4V303.1H99.3026C99.8948 302.149 100.503 301.145 101.122 300.1C103.772 295.624 106.628 290.377 109.349 285.127C109.665 284.518 109.979 283.908 110.29 283.3C110.444 283 110.598 282.7 110.75 282.4L103.085 280.3H118.7V241.9H35.3002V280.3H52.716ZM54.6403 280.3C55.2511 281.257 55.8545 282.263 56.4439 283.3C59.5979 288.85 62.3524 295.308 63.7073 300.1C63.7941 300.407 63.8751 300.707 63.9502 301L57.1729 303.1H93.9028L88.8502 301.6C89.155 301.125 89.4667 300.623 89.7836 300.1C90.0091 299.728 90.2372 299.344 90.4672 298.951C93.1614 294.343 96.1173 288.395 98.2612 283.3C98.6997 282.258 99.1042 281.252 99.4655 280.3H54.6403ZM94.9987 283.3H59.8741C62.9635 289.004 65.5847 295.38 66.8161 300.1H86.2483L86.3246 299.981C89.1021 295.648 92.51 289.034 94.9987 283.3ZM76.3081 186.265L75.5946 188.092C71.4458 198.712 65.4905 208.342 58.437 216.85H96.2775C88.3775 207.62 81.5984 197.264 76.3081 186.265ZM104.15 254.2H49.4002V268H104.15V254.2ZM183.05 184.15H237.35V187.15C237.35 213.776 240.633 269.28 298.429 303.519L302.252 305.784L298.723 308.483C296.451 310.22 292.13 314.805 290.118 317.392L288.48 319.498L286.197 318.117C252.649 297.82 235.941 269.109 227.686 242.602C215.889 276.87 197.242 301.894 169.121 318.436L166.979 319.696L165.342 317.826C163.395 315.6 158.474 311.113 155.68 309.158L151.636 306.327L156.011 304.041C188.285 287.177 206.641 257.796 215.668 215.918L216.283 213.061L221.491 214.042C220.912 209.631 220.522 205.444 220.264 201.55H183.05V184.15ZM223.091 198.55C223.142 199.529 223.202 200.53 223.27 201.55C223.544 205.62 223.964 210.006 224.595 214.626C224.736 215.661 224.888 216.707 225.052 217.764L218.6 216.55C209.721 257.745 191.801 287.498 160.316 305.123C159.357 305.66 158.385 306.186 157.4 306.7C158.162 307.233 159.059 307.93 160.007 308.714C162.796 311.016 166.033 314.059 167.6 315.85C196.053 299.113 214.671 273.425 226.205 237.553C226.783 235.756 227.343 233.934 227.885 232.086C228.33 233.912 228.812 235.756 229.335 237.613C236.96 264.696 253.26 294.683 287.75 315.55C289.29 313.571 292.119 310.462 294.525 308.176C295.4 307.344 296.22 306.62 296.9 306.1C295.979 305.554 295.071 305.003 294.177 304.447C237.548 269.235 234.35 213.583 234.35 187.15H186.05V198.55H223.091ZM46.4002 251.2V271H107.15V251.2H46.4002Z" fill="white"/>
</svg>
