<svg width="70" height="60" viewBox="0 0 70 60" fill="none" xmlns="http://www.w3.org/2000/svg">
<g clip-path="url(#clip0_181_5388)">
<path fill-rule="evenodd" clip-rule="evenodd" d="M53.4551 50.5384C54.8082 46.0851 53.7941 42.0764 50.5256 38.7399C48.1482 36.3083 45.702 33.9384 43.233 31.6005C38.7578 27.3598 31.3393 27.3389 26.957 31.5928C24.3878 34.0876 21.8743 36.6514 19.4516 39.2864C13.6193 45.6456 16.2965 55.9263 24.4622 58.6875C25.0204 58.8776 25.5971 59.0144 26.1742 59.1513C26.4389 59.2141 26.7036 59.2769 26.9667 59.3449L43.9095 59.148C44.0627 59.063 44.2239 58.9931 44.3908 58.9396C49.0627 57.9178 52.0881 55.0411 53.4551 50.5384ZM43.4542 57.1531C43.5611 57.1099 43.6697 57.0705 43.7797 57.0352L43.8704 57.0061L43.9635 56.9857C47.9129 56.122 50.3802 53.782 51.5413 49.9574L51.5414 49.957C52.6781 46.2161 51.8636 42.9637 49.0969 40.1394L49.0956 40.1381C46.7427 37.7316 44.3166 35.3809 41.8579 33.0528L41.8574 33.0523C38.1409 29.5306 31.9443 29.5392 28.3503 33.0276M43.4542 57.1531L27.205 57.342C26.9573 57.2802 26.7328 57.2272 26.5229 57.1776C26.0053 57.0554 25.5763 56.9541 25.107 56.7942L25.1029 56.7929C18.2967 54.4914 16.0777 45.9249 20.925 40.6389C23.3185 38.0356 25.8047 35.4995 28.35 33.0279" fill="#F6BC54"/>
<path fill-rule="evenodd" clip-rule="evenodd" d="M12.5002 34.8601C18.1156 33.7637 21.581 28.3734 20.4697 22.7293C19.5955 18.296 15.7362 14.9606 11.0801 14.6092C8.91608 14.4665 6.76329 15.0216 4.93805 16.1929C3.11281 17.3643 1.71134 19.0902 0.939515 21.1169C0.758249 21.6119 0.616452 22.1209 0.474321 22.631C0.405123 22.8794 0.335846 23.128 0.261896 23.3755L0.300129 26.4164C0.380081 26.5764 0.445057 26.7434 0.494212 26.9153C1.7223 33.1403 7.44275 35.8545 12.5002 34.8601ZM2.29499 25.9948C2.34059 26.1166 2.38135 26.2403 2.41716 26.3655L2.44018 26.446L2.45639 26.5282C3.43553 31.4913 7.95244 33.716 12.1144 32.8977L12.1169 32.8972C16.5969 32.0224 19.4147 27.7257 18.5075 23.1162M2.29499 25.9948L2.26551 23.6505C2.32607 23.4406 2.3792 23.249 2.42918 23.0689C2.55464 22.6166 2.66016 22.2362 2.81312 21.8168C3.43362 20.195 4.55669 18.8141 6.01825 17.8761C7.48072 16.9376 9.20518 16.4919 10.9391 16.6042C14.7371 16.895 17.8157 19.6094 18.5074 23.1156" fill="#F6BC54"/>
<path fill-rule="evenodd" clip-rule="evenodd" d="M59.429 32.4335L59.431 32.4334C64.1567 32.3832 67.6129 28.8703 67.589 24.1113C67.5573 19.688 63.7258 15.9657 59.2378 16.0295C54.7485 16.0933 51.0874 19.8458 51.1382 24.2606M69.589 24.0993C69.5505 18.5441 64.7873 13.9504 59.2093 14.0297C53.6314 14.109 49.074 18.7531 49.1383 24.2848C49.2094 30.1525 53.6222 34.5011 59.4523 34.4333C65.2853 34.3713 69.6194 29.953 69.589 24.0993ZM59.429 32.4335C54.7185 32.4882 51.1966 29.0398 51.1382 24.2616Z" fill="#F6BC54"/>
<path fill-rule="evenodd" clip-rule="evenodd" d="M35.2375 20.8023C40.6635 20.6176 45.1643 15.8351 44.98 10.4496C44.7691 4.51115 40.2643 0.227324 34.4182 0.408236C33.065 0.431574 31.7303 0.726538 30.4934 1.27566C29.2564 1.82478 28.1424 2.61686 27.2174 3.60484C26.2925 4.59282 25.5754 5.75657 25.1089 7.02701C24.6424 8.29744 24.436 9.64869 24.5017 11.0005C24.7356 16.6635 29.4842 20.9995 35.2375 20.8023ZM42.9812 10.5192C43.1265 14.786 39.5052 18.6559 35.1694 18.8035L35.1689 18.8035C30.4853 18.964 26.6873 15.4542 26.5 10.918L26.4997 10.9106L26.4994 10.9032C26.4466 9.81907 26.6122 8.73533 26.9864 7.7164C27.3605 6.69747 27.9356 5.76411 28.6774 4.97172C29.4193 4.17932 30.3128 3.54405 31.3049 3.10364C32.2969 2.66323 33.3674 2.42666 34.4527 2.40794L34.4664 2.4077L34.4801 2.40728C39.1953 2.26136 42.8076 5.65156 42.9812 10.5192Z" fill="#F6BC54"/>
</g>
<defs>
<clipPath id="clip0_181_5388">
<rect width="69.302" height="58.846" fill="white" transform="translate(0 0.80542) rotate(-0.665878)"/>
</clipPath>
</defs>
</svg>
