<svg width="628" height="88" viewBox="0 0 628 88" fill="none" xmlns="http://www.w3.org/2000/svg">
<path d="M576.68 50.0134C576.68 58.781 576.4 65.949 576.68 73.0765C577.021 79.6167 576.68 84.6991 568.107 84.2941C560.735 83.9499 560.996 79.0295 561.036 73.7244C561.176 54.9136 561.036 36.0825 561.356 17.2716C561.476 10.9946 557.029 1.19426 569.369 1.55873C580.045 1.86246 575.879 10.3061 576.339 16.1579C576.6 19.6204 577.181 23.0424 577.702 26.9909C597.432 25.1078 602.921 -2.65296 625.216 1.84221C624.775 3.58358 624.875 5.20346 624.154 5.89191C587.677 36.2647 587.697 36.2647 619.046 71.0111C622.291 74.5951 627.259 77.0857 627.84 83.9297C601.759 87.7971 598.093 58.1533 576.68 50.0134Z" fill="#F6BB54"/>
<path d="M53.7841 66.0706L89.1192 1.27539L94.0469 1.92336L106.606 84.1323C122.131 60.806 129.001 38.4314 139.237 17.8184C142.022 12.2298 142.302 2.75353 149.253 2.28782C158.287 1.63986 157.927 12.2299 160.711 18.1627C170.486 39.0389 179.46 60.2998 188.875 81.7227C178.759 87.5138 173.711 83.4236 171.568 73.0564C168.824 59.8138 160.13 57.546 147.871 57.4043C135.311 57.2625 126.678 60.3606 124.554 73.3398C121.61 91.4015 107.608 81.8037 99.0347 83.4641C88.4982 85.489 92.825 74.818 91.8434 69.4319C89.5599 57.0195 87.9774 44.4655 85.1129 25.3509L51.5205 87.9593L20.0714 30.6155L15.6846 31.1015C13.8684 45.6534 12.0523 60.2053 10.2361 74.7572C9.75533 78.7057 11.458 84.436 4.58729 83.8083C-2.74415 83.1199 0.801379 77.6325 1.30216 74.0283C4.10654 53.2331 7.11122 32.4783 10.0959 11.7236C10.5766 8.34213 9.63516 3.8672 14.1021 2.73329C19.4104 1.37664 21.4937 5.52759 23.5769 9.4558C33.252 27.6592 43.0072 45.8626 53.7841 66.0706ZM147.37 18.4664C142.963 32.6403 133.488 40.7397 137.955 48.8391C141.08 54.4075 151.977 52.0587 160.451 48.4544C156.765 39.8083 153.219 31.7089 147.37 18.4664Z" fill="#6A5F4B"/>
<path d="M510.076 0.972181C535.135 1.82262 552.702 20.4715 552.142 45.5189C551.561 68.8249 531.409 88.0407 508.754 86.6638C482.533 85.1857 464.685 65.6864 466.007 40.0923C467.249 15.6928 484.837 0.101496 510.076 0.972181ZM482.172 40.072C481.952 61.5759 493.109 77.2078 509.315 78.0987C525.52 78.9896 535.556 66.4761 535.476 45.7011C535.476 22.9418 525.139 9.67902 507.432 9.71952C487.24 9.67902 482.954 23.4278 482.172 40.072Z" fill="#F6BB54"/>
<path d="M415.328 0.829733C441.489 0.951224 458.435 17.5955 458.676 43.3516C458.896 68.318 441.489 87.1289 418.313 86.9871C392.513 86.8049 373.182 67.7308 373.182 42.4404C373.182 18.122 390.83 0.708242 415.328 0.829733ZM389.067 35.1307C388.626 61.6157 400.946 78.0373 417.832 78.1993C431.854 78.3613 443.873 64.3493 444.193 47.1786C444.694 25.6949 432.174 9.53662 414.747 9.7796C395.297 10.0428 390.089 23.1841 389.067 35.1307Z" fill="#F6BB54"/>
<path d="M236.77 85.2863C210.729 85.4888 192.981 68.6217 192.48 43.2301C192.264 37.8118 193.134 32.4053 195.038 27.3354C196.941 22.2655 199.838 17.6368 203.556 13.7275C207.274 9.81818 211.735 6.70887 216.671 4.58639C221.608 2.46392 226.918 1.37207 232.283 1.37647C257.882 1.09299 276.071 18.4662 276.692 43.7566C276.898 49.1671 276.015 54.5637 274.097 59.6191C272.179 64.6746 269.265 69.2836 265.532 73.1667C261.799 77.0499 257.325 80.1264 252.381 82.2097C247.437 84.293 242.126 85.3396 236.77 85.2863ZM206.502 39.7271C206.142 61.6563 218.261 78.341 235.147 79.232C250.11 80.0217 262.83 65.544 263.331 47.1786C263.912 25.9176 251.212 8.9494 234.065 8.13946C217.82 7.26877 206.803 19.8836 206.502 39.6259V39.7271Z" fill="#6A5F4B"/>
<path d="M315.172 43.1697C315.172 36.6902 314.471 30.1094 315.372 23.7514C316.374 16.4417 310.184 5.24427 319.378 2.57146C330.456 -0.648047 343.676 -2.28818 354.073 6.62117C362.085 13.4854 364.308 23.1237 358.299 31.7901C352.29 40.4564 359.361 42.5218 362.706 47.4016C370.718 59.0648 370.839 71.3759 358.7 79.3943C345.679 87.9189 327.471 91.1789 317.335 80.67C310.965 74.0689 316.153 56.068 316.153 43.1697H315.172ZM328.012 62.588C332.018 66.8807 323.104 79.6373 337.767 78.0376C347.042 77.0252 353.972 71.4164 353.371 61.1099C352.79 51.2691 346.621 45.559 336.605 45.5793C324.226 45.5995 330.416 55.663 328.012 62.588ZM328.012 23.5894C331.037 27.0317 325.007 35.7385 334.402 36.0625C343.796 36.3865 345.82 29.4412 346 21.5443C346.16 14.0726 342.915 8.48403 335.423 8.36254C324.526 8.2208 330.476 17.6566 328.032 23.5894H328.012Z" fill="#F6BB54"/>
</svg>
