<svg width="584" height="546" viewBox="0 0 584 546" fill="none" xmlns="http://www.w3.org/2000/svg">
<g clip-path="url(#clip0_181_5369)">
<path d="M329.148 228.686C330.588 228.572 332.037 228.706 333.432 229.083C341.146 237.633 348.718 246.278 356.559 254.686C409.91 311.937 460.605 370.996 487.763 446.315C454.013 508.769 405.325 544.239 331.029 545.953C272.224 547.285 223.442 531.866 184.017 488.242C176.825 480.31 169.063 472.521 166.629 461.274C183.195 442.682 176.588 418.745 180.303 397.408C189.519 344.409 208.567 298.405 255.705 267.884C279.18 252.767 304.567 241.551 329.148 228.686Z" fill="#54534A"/>
<path d="M329.148 228.686C304.567 241.567 279.18 252.782 255.737 267.948C208.599 298.485 189.551 344.488 180.335 397.456C176.62 418.792 183.228 442.73 166.661 461.322C136.626 421.41 133.243 375.454 140.499 328.784C143.25 311.128 143.661 295.677 137.512 279.242C128.659 255.352 119.807 231.367 112.773 206.906C108.915 193.454 102.466 187.41 88.6341 187.87C79.4182 188.171 70.155 186.712 60.9074 186.283C23.0796 184.427 -0.11026 159.585 0.000394237 121.957C0.000394237 112.439 2.54541 107.68 12.5201 106.935C24.0439 105.999 35.4255 103.175 46.9335 102.287C60.8127 101.24 72.4628 97.2424 79.6395 84.2979C84.1605 76.1442 91.8115 72.3687 100.537 71.4169C128.296 68.387 144.372 52.5554 152.165 26.3333C154.505 18.4016 157.097 6.93246 165.618 6.21861C176.81 5.25094 178.801 18.243 181.599 26.254C210.369 108.775 258.852 176.67 329.148 228.686Z" fill="#6A5F4B"/>
<path d="M487.731 446.299C460.605 370.98 409.91 311.921 356.527 254.67C348.623 246.262 341.115 237.617 333.4 229.066C361.759 203.685 381.472 174.195 386.925 134.902C395.667 71.8768 441.857 35.6608 488.3 0.0634766C493.438 3.23614 491.082 8.50277 490.735 12.3576C488.379 38.4686 490.071 61.1532 523.109 66.4832C532.372 67.9744 537.478 77.4607 542.758 85.202C548.417 93.5144 554.566 101.256 564.193 105.697C585.897 115.739 589.627 129.968 575.954 149.877C570.595 157.495 563.493 163.713 555.246 168.009C511.806 191.55 500.82 213.806 512.565 262.126C528.436 327.038 509.941 386.796 487.731 446.299Z" fill="#F6BB54"/>
</g>
<defs>
<clipPath id="clip0_181_5369">
<rect width="584" height="546" fill="white"/>
</clipPath>
</defs>
</svg>
